<?xml version="1.0" encoding="UTF-8" standalone="no"?>
<!DOCTYPE svg PUBLIC "-//W3C//DTD SVG 1.1//EN" "http://www.w3.org/Graphics/SVG/1.1/DTD/svg11.dtd">
<svg version="1.1" width="100%" height="100%" viewBox="0 0 2880 2880" xmlns="http://www.w3.org/2000/svg" xmlns:xlink="http://www.w3.org/1999/xlink" xml:space="preserve" xmlns:serif="http://www.serif.com/">
  <title>GMAF</title>

  <style>.light { fill:#E3E3E3; }</style>

  <g id="gmaf">
    <path id="af.-lobster" class="light" d="M2675.47,1042.01c-64.62,0 -129.216,-12.248 -170.247,-12.248c-63.69,0 -110.453,9.626 -160.449,14.379c-24.619,-10.264 -57.419,-14.379 -81.009,-14.379c-120.03,0 -253.337,138.451 -356.907,302.55c-21.532,-2.058 -38.973,-3.062 -53.327,-3.062c-121.035,0 -209.221,56.341 -209.221,126.13c0,40.002 28.709,59.501 63.69,59.501c31.845,0 57.418,-15.384 57.418,-40.002c0,-14.355 -8.206,-31.845 -13.325,-31.845c13.325,-34.882 56.34,-49.237 120.03,-53.328c-89.361,156.921 -150.871,325.16 -150.871,417.461c0,106.656 82.037,108.713 137.423,108.713c-6.149,-9.235 -14.355,-24.496 -14.355,-57.443c0,-106.655 56.341,-301.521 133.332,-468.682c45.122,4.091 85.124,13.326 137.423,36.916l-79,372.265l147.686,0l143.425,-672.342c16.926,-8.132 36.107,-11.905 57.026,-12.713l-147.686,685.055l147.686,0l83.066,-385.616l149.72,0l16.412,-75.937l-149.719,0l43.064,-204.101c47.179,10.264 96.416,19.597 143.571,19.597c80.004,-17.417 83.09,-79.98 97.445,-123.068c-28.709,9.186 -60.505,12.199 -92.301,12.199Zm-676.311,303.628c57.419,-114.862 123.068,-210.225 184.602,-243.05l-59.476,278.961c-40.002,-16.412 -84.095,-27.705 -125.126,-35.911Z"/>
    <path id="m.-twcent" class="light" d="M1674.91,1798.97l-96.074,0l-118.805,-456.777l-204.542,484.384l-205.154,-488.377l-120.423,460.77l-95.534,0l196.335,-747.594l224.678,534.895l223.183,-534.895l196.336,747.594Z"/>
    <path id="g.-twcent" class="light" d="M792.245,1196.17l-72.655,71.553c-73.244,-71.739 -157.934,-107.611 -254.073,-107.611c-84.139,0 -154.178,27.012 -210.127,81.033c-55.949,54.021 -83.933,121.556 -83.948,202.606c0,70.909 27.132,134.785 81.4,191.633c54.266,56.847 129.102,85.238 224.506,85.172c143.089,0 233.038,-62.151 269.849,-186.463l-193.813,0l0,-97.985l305.906,0c0,49.139 -3.265,88.333 -9.798,117.581c-6.533,29.249 -20.143,61.503 -40.835,96.76c-21.574,36.305 -49.533,68.415 -82.527,94.775c-32.563,26.965 -70.071,47.319 -110.428,59.917c-39.194,12.003 -86.047,18.005 -140.558,18.005c-123.933,0 -222.801,-38.932 -296.598,-116.797c-73.799,-77.866 -110.724,-166.899 -110.771,-267.105c0,-105.448 37.748,-195.265 113.245,-269.456c75.497,-74.189 166.948,-111.251 274.355,-111.188c63.854,0 122.162,9.669 174.927,29.004c52.764,19.337 106.746,55.525 161.943,108.566Z"/>
  </g>
</svg>
