<?xml version="1.0" encoding="utf-8" standalone="no"?>
<!DOCTYPE svg PUBLIC "-//W3C//DTD SVG 1.1//EN" "http://www.w3.org/Graphics/SVG/1.1/DTD/svg11.dtd">
<svg version="1.1" width="100%" height="100%" viewBox="0 0 800 800" xmlns="http://www.w3.org/2000/svg" xmlns:xlink="http://www.w3.org/1999/xlink" xml:space="preserve" xmlns:serif="http://www.serif.com/">
	<title>Jo_</title>

  <style>.light { fill:#E3E3E3; }</style>

	<g id="Curves">
		<path id="_x5F_" class="light" d="M296.644,707.997c-3.84-2.242-5.76-4.643-5.76-7.2c0-3.202,1.2-5.925,3.6-8.159
			c2.4-2.243,5.197-3.36,8.4-3.36h154.08h11.52c3.518-0.315,7.357-0.48,11.521-0.48c3.84,0,6.72,0.796,8.64,2.4
			c1.92,1.598,2.88,3.84,2.88,6.72c0,2.558-1.282,4.958-3.84,7.2c-2.564,2.235-5.603,3.36-9.12,3.36l-21.12,0.479l-73.92,0.96
			c-33.285,0.96-57.922,1.44-73.92,1.44C304.804,711.357,300.484,710.232,296.644,707.997z"/>
		<path id="o" class="light" d="M440.322,558.478c-7.043-5.28-12.803-12.397-17.281-21.36c-9.285-19.515-15.045-40.8-17.279-63.84
			c-2.881-21.758-4.32-42.72-4.32-62.88c0-3.84,0.158-7.035,0.48-9.6v-8.64c0-1.597-0.166-2.4-0.48-2.4v-8.64l0.48-33.6
			c0.314-10.238,1.598-26.558,3.84-48.96c1.598-15.36,5.279-30.24,11.039-44.64c2.236-6.397,5.115-11.28,8.641-14.64
			c3.518-3.36,7.516-5.04,12-5.04c12.795,0,24.314,2.325,34.561,6.96c10.236,4.643,18.877,11.123,25.92,19.44
			c6.396,8.002,11.834,17.843,16.32,29.52c4.477,11.685,7.68,24.083,9.6,37.2c1.92,13.44,2.879,27.683,2.879,42.72v3.84
			c0,9.922,0.158,18.885,0.48,26.88l0.48,27.36c0,92.16-21.443,138.24-64.32,138.24C455.037,566.397,447.355,563.758,440.322,558.478
			z M477.281,539.277c4.801-4.635,8.475-10.957,11.041-18.96c6.074-16.32,9.756-33.915,11.039-52.8c1.598-16.32,2.4-30.397,2.4-42.24
			c0-14.4-1.125-33.277-3.359-56.64c-1.922-24.637-2.881-43.035-2.881-55.2v-8.64c-0.645-12.158-4.725-22.717-12.24-31.68
			c-7.521-8.955-16.725-13.44-27.6-13.44c-10.883,0-18.082,6.24-21.6,18.72c-3.203,9.922-4.801,22.725-4.801,38.4
			c0,6.083,0.158,11.205,0.48,15.36v12.96l-0.961,22.08c-0.645,6.72-0.959,14.085-0.959,22.08c0,17.28,0.48,34.402,1.439,51.36
			c1.275,24,4.479,47.362,9.6,70.08c5.115,23.685,12.639,35.52,22.561,35.52C467.201,546.237,472.48,543.92,477.281,539.277z"/>
		<path id="J" class="light" d="M275.686,602.877c0,0-1.605-1.282-4.8-3.84c-3.203-2.564-4.8-6.24-4.8-11.04
			c0-3.524,1.92-7.2,5.76-11.04s8.16-6.72,12.96-8.64c4.8-6.083,9.195-15.518,13.2-28.32c3.997-12.795,6-25.92,6-39.359l0.48-23.521
			c0.315-6.72,0.48-14.399,0.48-23.04l-0.48-19.68l-2.4-48.48c-2.242-63.36-5.76-119.198-10.56-167.52
			c-0.96,0.645-3.045,1.125-6.24,1.44c-5.123,1.605-9.922,2.4-14.4,2.4c-3.203,0-6-1.2-8.4-3.6c-2.4-2.4-3.6-5.197-3.6-8.4
			c0-11.197,19.035-16.8,57.12-16.8h6.24c4.478,0,7.995,0.24,10.56,0.72c2.558,0.48,4.958,1.68,7.2,3.6
			c2.557,1.92,3.84,4.8,3.84,8.64c0,8.325-6.72,12.48-20.16,12.48c-0.322,0-0.48-0.158-0.48-0.48h-0.96h-6.24v3.84
			c0,8.325,0.96,20.64,2.88,36.96c1.597,18.563,2.4,31.042,2.4,37.44c0,22.725,1.598,53.76,4.8,93.12
			c2.558,37.125,3.84,68.325,3.84,93.6v19.2v19.2c0,19.199-4.08,36.239-12.24,51.119c-8.16,14.881-19.605,24.878-34.32,30
			C278.244,602.877,275.686,602.877,275.686,602.877z"/>
		</g>
	</svg>
