<?xml version="1.0" encoding="UTF-8" standalone="no"?>
<!DOCTYPE svg PUBLIC "-//W3C//DTD SVG 1.1//EN" "http://www.w3.org/Graphics/SVG/1.1/DTD/svg11.dtd">
<svg width="100%" height="100%" viewBox="0 0 1200 1200" version="1.1" xmlns="http://www.w3.org/2000/svg" xmlns:xlink="http://www.w3.org/1999/xlink" xml:space="preserve" xmlns:serif="http://www.serif.com/" style="fill-rule:evenodd;clip-rule:evenodd;stroke-linejoin:round;stroke-miterlimit:2;">
  <title>Toronto Organizing</title>

  <style>.light { fill:#E3E3E3; }</style>

  <g id="Wordmark--bold-" serif:id="Wordmark (bold)" transform="matrix(1,0,0,1,-1320,-5.72205e-05)">
      <g id="Curves" transform="matrix(0.248834,0,0,1.06667,1357.88,-253)">
          <path class="light" d="M565.336,662.677C604.476,662.677 639.614,664.742 670.749,668.871C701.884,673.001 726.169,678.708 743.604,685.992C761.04,693.276 769.758,701.483 769.758,710.614C769.758,719.786 761.04,728.015 743.604,735.298C726.169,742.582 701.884,748.289 670.749,752.419C639.614,756.548 604.476,758.613 565.336,758.613C526.195,758.613 491.102,756.548 460.056,752.419C429.01,748.289 404.725,742.582 387.2,735.298C369.676,728.015 360.914,719.786 360.914,710.614C360.914,701.483 369.676,693.276 387.2,685.992C404.725,678.708 429.01,673.001 460.056,668.871C491.102,664.742 526.195,662.677 565.336,662.677ZM565.336,746.785C594.691,746.785 620.978,745.226 644.196,742.107C667.413,738.989 685.516,734.675 698.503,729.167C711.491,723.658 717.985,717.474 717.985,710.614C717.985,703.754 711.491,697.58 698.503,692.092C685.516,686.604 667.413,682.301 644.196,679.183C620.978,676.065 594.691,674.506 565.336,674.506C535.98,674.506 509.693,676.065 486.476,679.183C463.258,682.301 445.2,686.604 432.301,692.092C419.403,697.58 412.953,703.754 412.953,710.614C412.953,717.474 419.403,723.658 432.301,729.167C445.2,734.675 463.258,738.989 486.476,742.107C509.693,745.226 535.98,746.785 565.336,746.785Z"/>
          <path class="light" d="M995.262,726.302L892.784,726.302L892.784,757.181L841.012,757.181L841.012,664.109L998.998,664.109C1025.68,664.109 1049.44,665.437 1070.25,668.093C1091.07,670.75 1107.26,674.443 1118.82,679.175C1130.39,683.906 1136.17,689.302 1136.17,695.361C1136.17,699.761 1132.74,703.89 1125.89,707.75C1119.05,711.61 1109.3,714.941 1096.67,717.742C1084.04,720.544 1069.27,722.65 1052.37,724.061L1143.64,757.181L1082,757.181L995.262,726.302ZM892.784,714.474L999.532,714.474C1016.08,714.474 1030.76,713.654 1043.57,712.015C1056.38,710.375 1066.34,708.093 1073.45,705.167C1080.57,702.241 1084.13,698.931 1084.13,695.237C1084.13,691.418 1080.62,688.057 1073.59,685.151C1066.56,682.246 1056.69,679.984 1043.97,678.365C1031.25,676.747 1016.61,675.938 1000.07,675.938L892.784,675.938L892.784,714.474Z"/>
          <path class="light" d="M1591.98,712.544C1591.98,721.343 1583.8,729.239 1567.43,736.232C1551.06,743.226 1528.07,748.704 1498.44,752.668C1468.82,756.631 1434.97,758.613 1396.9,758.613C1357.94,758.613 1323.2,756.548 1292.69,752.419C1262.18,748.289 1238.38,742.572 1221.3,735.267C1204.22,727.963 1195.68,719.745 1195.68,710.614C1195.68,701.525 1204.4,693.338 1221.83,686.054C1239.27,678.77 1263.42,673.053 1294.29,668.903C1325.16,664.752 1360.07,662.677 1399.04,662.677C1436.93,662.677 1471,664.68 1501.25,668.685C1531.49,672.69 1555.24,678.199 1572.5,685.214L1528.73,691.501C1515.92,686.272 1498.22,682.132 1475.63,679.081C1453.03,676.031 1427.5,674.506 1399.04,674.506C1369.86,674.506 1343.75,676.072 1320.71,679.206C1297.67,682.339 1279.75,686.646 1266.93,692.124C1254.13,697.603 1247.72,703.745 1247.72,710.552C1247.72,717.566 1253.95,723.823 1266.4,729.322C1278.86,734.821 1296.42,739.106 1319.11,742.178C1341.79,745.249 1367.9,746.785 1397.43,746.785C1420.92,746.785 1442.05,745.843 1460.82,743.96C1479.59,742.077 1495.33,739.417 1508.05,735.982C1520.77,732.546 1530.16,728.511 1536.21,723.875L1375.55,723.875L1375.55,712.544L1591.98,712.544Z"/>
          <path class="light" d="M585.661,838.25L418.334,838.25L392.981,855.619L340.408,855.619L477.045,762.546L529.618,762.546L664.921,855.619L611.013,855.619L585.661,838.25ZM568.848,826.67L502.398,780.787L435.413,826.67L568.848,826.67Z"/>
          <path class="light" d="M1027.86,762.546L1027.86,855.619L975.824,855.619L771.402,783.464L771.402,855.619L719.629,855.619L719.629,762.546L771.402,762.546L975.824,834.701L975.824,762.546L1027.86,762.546Z"/>
          <rect class="light" x="1116.46" y="762.546" width="51.773" height="93.073"/>
          <path class="light" d="M1235.56,855.619L1235.56,844.537L1478.68,774.375L1235.56,774.375L1235.56,762.546L1544.86,762.546L1544.86,773.628L1301.75,843.79L1544.86,843.79L1544.86,855.619L1235.56,855.619Z"/>
      </g>
      <g id="Shape" transform="matrix(1,0,0,1,0,40)">
          <path class="light" d="M1730.48,720L1760,720L1760,400L1440,400L1440,80L1760,80L1760,80L2400,80L2400,720L2080,720L2080,1040L1440,1040L1440,720L1537,720L1537,625.383L1549.88,625.383L1549.88,720L1571.93,720L1571.93,625.383L1584.81,625.383L1635.68,702.348L1635.68,625.383L1648.63,625.383L1648.63,720L1680.29,720C1680.04,719.862 1679.79,719.722 1679.55,719.58C1671.96,715.175 1666.04,709.077 1661.79,701.285C1657.54,693.493 1655.41,684.728 1655.41,674.988C1655.41,665.293 1657.58,656.561 1661.92,648.791C1666.26,641.021 1672.27,634.923 1679.95,630.496C1687.63,626.069 1696.32,623.855 1706.01,623.855C1715.44,623.855 1723.92,625.992 1731.44,630.264C1738.97,634.536 1744.88,640.413 1749.18,647.894L1738.29,654.602C1735.1,649.023 1730.69,644.607 1725.07,641.353C1719.45,638.1 1713.1,636.473 1706.01,636.473C1698.75,636.473 1692.26,638.144 1686.52,641.486C1680.79,644.829 1676.33,649.422 1673.14,655.266C1669.95,661.109 1668.36,667.661 1668.36,674.922C1668.36,682.404 1669.91,689.077 1673.01,694.943C1676.11,700.809 1680.48,705.38 1686.12,708.656C1691.77,711.932 1698.26,713.57 1705.61,713.57C1711.46,713.57 1716.71,712.566 1721.38,710.557C1726.06,708.548 1729.97,705.712 1733.14,702.047C1736.3,698.383 1738.64,694.078 1740.14,689.133L1700.17,689.133L1700.17,677.047L1754.02,677.047C1754.02,686.432 1751.99,694.855 1747.91,702.314C1743.84,709.774 1738.12,715.618 1730.75,719.846C1730.66,719.897 1730.57,719.949 1730.48,720ZM1921,748.347C1946.07,748.347 1968.65,754.157 1988.76,765.778C2008.87,777.399 2024.59,793.236 2035.93,813.288C2047.27,833.34 2052.93,855.557 2052.93,879.939C2052.93,904.434 2047.27,926.708 2035.93,946.76C2024.59,966.813 2008.87,982.649 1988.76,994.27C1968.65,1005.89 1946.07,1011.7 1921,1011.7C1895.93,1011.7 1873.35,1005.89 1853.24,994.27C1833.13,982.649 1817.41,966.784 1806.07,946.675C1794.74,926.566 1789.07,904.32 1789.07,879.939C1789.07,855.557 1794.74,833.34 1806.07,813.288C1817.41,793.236 1833.13,777.399 1853.24,765.778C1873.35,754.157 1895.93,748.347 1921,748.347ZM1563.66,805.427L1490.85,805.427L1490.85,752.277L1691.15,752.277L1691.15,805.427L1618.34,805.427L1618.34,1007.77L1563.66,1007.77L1563.66,805.427ZM1921,957.698C1935.81,957.698 1949.08,954.28 1960.82,947.444C1972.55,940.608 1981.75,931.266 1988.42,919.417C1995.09,907.568 1998.42,894.408 1998.42,879.939C1998.42,865.469 1995.09,852.339 1988.42,840.547C1981.75,828.755 1972.55,819.441 1960.82,812.605C1949.08,805.769 1935.81,802.351 1921,802.351C1906.19,802.351 1892.92,805.769 1881.18,812.605C1869.45,819.441 1860.27,828.755 1853.67,840.547C1847.06,852.339 1843.75,865.469 1843.75,879.939C1843.75,894.408 1847.06,907.568 1853.67,919.417C1860.27,931.266 1869.45,940.608 1881.18,947.444C1892.92,954.28 1906.19,957.698 1921,957.698ZM1584.81,720L1632.6,720L1584.81,647.695L1584.81,720ZM1920,429.346C1945.07,429.346 1967.65,435.156 1987.76,446.777C2007.87,458.398 2023.59,474.235 2034.93,494.287C2046.27,514.339 2051.93,536.556 2051.93,560.938C2051.93,585.433 2046.27,607.707 2034.93,627.759C2023.59,647.811 2007.87,663.648 1987.76,675.269C1967.65,686.89 1945.07,692.701 1920,692.701C1894.93,692.701 1872.35,686.89 1852.24,675.269C1832.13,663.648 1816.41,647.783 1805.07,627.674C1793.74,607.565 1788.07,585.319 1788.07,560.938C1788.07,536.556 1793.74,514.339 1805.07,494.287C1816.41,474.235 1832.13,458.398 1852.24,446.777C1872.35,435.156 1894.93,429.346 1920,429.346ZM2354.25,433.276L2354.25,688.77L2300.41,688.77L2199.59,529.834L2199.59,688.77L2145.75,688.77L2145.75,433.276L2199.59,433.276L2300.41,592.212L2300.41,433.276L2354.25,433.276ZM1920,638.697C1934.81,638.697 1948.08,635.279 1959.82,628.443C1971.55,621.607 1980.75,612.264 1987.42,600.415C1994.09,588.566 1997.42,575.407 1997.42,560.938C1997.42,546.468 1994.09,533.338 1987.42,521.546C1980.75,509.754 1971.55,500.44 1959.82,493.604C1948.08,486.768 1934.81,483.35 1920,483.35C1905.19,483.35 1891.92,486.768 1880.18,493.604C1868.45,500.44 1859.27,509.754 1852.67,521.546C1846.06,533.338 1842.75,546.468 1842.75,560.938C1842.75,575.407 1846.06,588.566 1852.67,600.415C1859.27,612.264 1868.45,621.607 1880.18,628.443C1891.92,635.279 1905.19,638.697 1920,638.697ZM1920,108.347C1945.07,108.347 1967.65,114.158 1987.76,125.779C2007.87,137.4 2023.59,153.237 2034.93,173.289C2046.27,193.341 2051.93,215.558 2051.93,239.94C2051.93,264.435 2046.27,286.709 2034.93,306.761C2023.59,326.813 2007.87,342.65 1987.76,354.271C1967.65,365.892 1945.07,371.703 1920,371.703C1894.93,371.703 1872.35,365.892 1852.24,354.271C1832.13,342.65 1816.41,326.785 1805.07,306.676C1793.74,286.567 1788.07,264.321 1788.07,239.94C1788.07,215.558 1793.74,193.341 1805.07,173.289C1816.41,153.237 1832.13,137.4 1852.24,125.779C1872.35,114.158 1894.93,108.347 1920,108.347ZM1562.66,165.428L1489.85,165.428L1489.85,112.278L1690.15,112.278L1690.15,165.428L1617.34,165.428L1617.34,367.772L1562.66,367.772L1562.66,165.428ZM2249.49,293.944L2207.28,293.944L2207.28,367.772L2152.76,367.772L2152.76,112.278L2262.99,112.278C2280.88,112.278 2296.94,116.209 2311.18,124.07C2325.42,131.932 2336.53,142.755 2344.51,156.541C2352.48,170.327 2356.47,185.879 2356.47,203.196C2356.47,221.312 2352.08,237.519 2343.31,251.817C2334.54,266.116 2322.58,276.968 2307.42,284.373L2361.26,367.772L2297.17,367.772L2249.49,293.944ZM1920,317.699C1934.81,317.699 1948.08,314.281 1959.82,307.445C1971.55,300.609 1980.75,291.266 1987.42,279.417C1994.09,267.568 1997.42,254.409 1997.42,239.94C1997.42,225.47 1994.09,212.34 1987.42,200.548C1980.75,188.755 1971.55,179.441 1959.82,172.606C1948.08,165.77 1934.81,162.352 1920,162.352C1905.19,162.352 1891.92,165.77 1880.18,172.606C1868.45,179.441 1859.27,188.755 1852.67,200.548C1846.06,212.34 1842.75,225.47 1842.75,239.94C1842.75,254.409 1846.06,267.568 1852.67,279.417C1859.27,291.266 1868.45,300.609 1880.18,307.445C1891.92,314.281 1905.19,317.699 1920,317.699ZM2207.28,241.136L2264.01,241.136C2271.42,241.136 2277.97,239.512 2283.67,236.265C2289.36,233.018 2293.81,228.518 2297,222.764C2300.19,217.011 2301.78,210.488 2301.78,203.196C2301.78,195.905 2300.19,189.411 2297,183.714C2293.81,178.017 2289.39,173.545 2283.75,170.298C2278.11,167.051 2271.65,165.428 2264.36,165.428L2207.28,165.428L2207.28,241.136Z"/>
      </g>
  </g>
</svg>
