<?xml version="1.0" encoding="utf-8"?>
<!DOCTYPE svg PUBLIC "-//W3C//DTD SVG 1.1//EN" "http://www.w3.org/Graphics/SVG/1.1/DTD/svg11.dtd">
<svg version="1.1" id="VARG" xmlns="http://www.w3.org/2000/svg" xmlns:xlink="http://www.w3.org/1999/xlink" x="0px" y="0px"
 width="217px" height="105px" viewBox="0 0 217 105" enable-background="new 0 0 217 105" xml:space="preserve">
<g>
	<g>
		<path style="fill:#dadada;" d="M50.8,41c0,0-7.6-35.7-7.8-36.6c-0.2-0.9,0.1-1.2,0.1-1.2H30.7c0.4,0.3,0.1,1.2,0.1,1.2
			s-8.1,35.3-8.3,36.4c-0.3,1.1-0.9,1.4-0.9,1.4s5.7,0,11.8,0C33,41.9,33.1,41,33.1,41l0.8-5.2h5.8c0,0,0.6,4.2,0.7,5.1
			s-0.2,1.1-0.2,1.1s7.1,0,11.4,0C51.1,42,50.8,41,50.8,41z M35,28.7l1.9-12.6l1.8,12.6H35z"/>
		<path style="fill:#dadada;" d="M70.3,22c0,0,6.9-0.8,6.7-9.6c-0.3-9.7-12.2-9.2-12.2-9.2h-13c0.3,0.3,0.4,1.5,0.4,1.5
			s0,35.3,0,36.1s-0.4,1.5-0.4,1.5s10.8,0,14.5,0s12.4-1.6,12.1-10.7S70.3,22,70.3,22z M66.8,14.7c0.2,4.2-3.7,3.9-3.9,3.9
			c0-3.9-0.1-7.5-0.1-7.5S66.6,10.4,66.8,14.7z M62.8,33.7v-8c0,0,4.4-0.7,4.4,4S62.8,33.7,62.8,33.7z"/>
		<path style="fill:#dadada;" d="M92.7,16.4c-2.1-1.6-3.1-4.6,0.7-5c4.1,0,6.7,2.6,6.7,2.6V3.8c-0.3,0.3-0.8,0.3-1.4,0
			S96.7,3,95.1,2.8c-4.9-0.9-8.8,0.2-11,1.8C81.9,6.2,80.3,8,80,13.4s2,7.8,5.2,11c3.7,2.8,4.8,3.9,5.7,5.1c1.1,1.1,1.2,3.7-2.5,4.1
			c-3.8,0.1-8.4-3.8-8.4-3.8s0,5.6,0,11.1c0.4-0.3,1.1,0,2.6,0.8c3.7,2.1,10.5,2.1,14.9-0.9c4.3-2.9,5.7-10.2,4.4-14.5
			C100.6,22,96.2,19.3,92.7,16.4z"/>
		<path style="fill:#dadada;" d="M117.6,2.4c0,0-14.5-2-14.5,20.2c0,22.3,14.5,20.5,14.5,20.5s14.5,1.3,14.5-20.5
			C132.1,0.9,117.6,2.4,117.6,2.4z M117.6,33.9c0,0-3.5,1.3-3.5-11.3c0-12.7,3.5-11.7,3.5-11.7s3.3-1,3.3,11.7
			C120.9,35.2,117.6,33.9,117.6,33.9z"/>
		<path style="fill:#dadada;" d="M145.3,33c0,0,0-27.5,0-28.5s0.3-1.4,0.3-1.4H134c0.5,0.7,0.4,1.5,0.4,1.5s0,34.5,0,35.9
			s-0.4,1.6-0.4,1.6h19.1c0,0,0-7.2,0-9.5c-0.3,0.3-1.4,0.4-1.4,0.4L145.3,33L145.3,33z"/>
		<path style="fill:#dadada;" d="M170.5,4.7v26.6c0,0,0.1,2.8-2.8,2.8s-3.1-2.8-3.1-2.8s0-25.7,0-26.8s0.4-1.4,0.4-1.4h-11.3
			c0.3,0.2,0.4,1.4,0.4,1.4v26.8c0,0,0.3,11.7,13.4,11.7s13.3-11.8,13.3-11.8s0-26,0-26.8c0-0.8,0.3-1.3,0.3-1.3s-7.3,0-11.1,0
			C170.5,3.6,170.5,4.7,170.5,4.7z"/>
		<path style="fill:#dadada;" d="M182.4,12.7c0.6-0.4,1.4-0.3,1.4-0.3h4.9c0,0,0,27.3,0,28.4s-0.3,1.4-0.3,1.4s8.1,0,11.6,0
			c-0.4-0.4-0.4-1.5-0.4-1.5V12.3c0,0,4.2,0,5,0s1.3,0.3,1.3,0.3V3.2h-23.5L182.4,12.7L182.4,12.7z"/>
		<path style="fill:#dadada;" d="M211.6,2.5c-2.1,0-3.8,1.6-3.8,3.8c0,2.2,1.8,3.8,3.8,3.8c2.1,0,3.8-1.6,3.8-3.8
			C215.4,4.1,213.7,2.5,211.6,2.5z M211.6,9.4c-1.7,0-3.1-1.3-3.1-3.2c0-1.8,1.3-3.1,3.1-3.1c1.7,0,3.1,1.3,3.1,3.1
			C214.7,8.1,213.3,9.4,211.6,9.4z"/>
		<path style="fill:#dadada;" d="M213.3,5.3c0-0.9-0.5-1.2-1.5-1.2h-1.7v4.3h0.7V6.5h0.8l1.1,1.9h0.7l-1.2-1.9
			C212.8,6.4,213.3,6.1,213.3,5.3z M210.8,6V4.6h0.9c0.5,0,0.9,0.1,0.9,0.6c0,0.7-0.5,0.7-1.1,0.7C211.6,6,210.8,6,210.8,6z"/>
	</g>
	<g>
		<path style="fill:#dadada;" d="M177,102.8c0,0,7.1,0,11.4,0c-0.4-0.2-0.7-1.2-0.7-1.2s-7.6-35.7-7.8-36.6
			c-0.2-0.9,0.1-1.2,0.1-1.2h-12.5c0.4,0.3,0.1,1.2,0.1,1.2s-8.1,35.3-8.3,36.4s-0.9,1.4-0.9,1.4s5.7,0,11.8,0
			c-0.3-0.3-0.2-1.1-0.2-1.1l0.8-5.2h5.8c0,0,0.6,4.2,0.7,5.1S177,102.8,177,102.8z M171.8,89.5l1.9-12.6l1.8,12.6H171.8z"/>
		<path style="fill:#dadada;" d="M84.1,63.1c0,0-14.5-2-14.5,20.2c0,22.3,14.5,20.5,14.5,20.5s14.5,1.3,14.5-20.5
			C98.6,61.6,84.1,63.1,84.1,63.1z M84.1,94.6c0,0-3.5,1.3-3.5-11.3s3.5-11.7,3.5-11.7s3.3-1,3.3,11.7S84.1,94.6,84.1,94.6z"/>
		<path style="fill:#dadada;" d="M112.2,63.9h-11.6c0.4,0.5,0.4,1.2,0.4,1.2s0,35.8,0,36.5s-0.3,1.4-0.3,1.4s1.2,0,11.9,0
			s13.6-9.4,13.6-9.4s3.4-8.6,0.3-19.4S112.2,63.9,112.2,63.9z M111.3,94.9V71.7c0,0,5.3-0.8,5.3,11.5
			C116.6,95.5,111.3,94.9,111.3,94.9z"/>
		<path style="fill:#dadada;" d="M157.6,101.9L150,82c0,0,7.4-16,7.7-16.7s0.9-1.3,0.9-1.3s-7.2,0-12.3,0c0.2,0.2,0.1,1,0.1,1
			l-5.6,15c0,0,0-13.9,0-14.8s0.4-1.2,0.4-1.2h-11.6c0.3,0.2,0.4,1.1,0.4,1.1s0,35.4,0,36.4s-0.4,1.5-0.4,1.5s7.1,0,11.7,0
			c-0.4-0.4-0.4-1.6-0.4-1.6V85.2c0,0,4.9,15.6,5.2,16.4s-0.2,1.4-0.2,1.4s9,0,12.2,0C157.9,102.7,157.6,101.9,157.6,101.9z"/>
		<path style="fill:#dadada;" d="M62.5,101.6c0.2-0.9,7.8-36.6,7.8-36.6s0.3-1,0.7-1.2c-4.3,0-11.4,0-11.4,0s0.3,0.2,0.2,1.1
			c-0.1,0.9-0.7,5.1-0.7,5.1l-2.8,19.7l-3-19.7L52.6,65c0,0-0.1-0.8,0.2-1.1c-6.1,0-11.8,0-11.8,0s0.6,0.2,0.9,1.4
			c0.3,1.1,8.3,36.4,8.3,36.4s0.3,0.9-0.1,1.2h12.5C62.6,102.8,62.4,102.5,62.5,101.6z"/>
	</g>
	<g>
		<path style="fill:#dadada;" d="M101,53.4c-5,3.8-7.1,5.3-7.1,5.3l6-11c0,0-0.2,0-2.4,0c-2.6,4.8-3.7,6.5-4.5,7.5s-1.3,2.1-2.8,2.9
			c-1.5,0.8-1.4-0.2-1.4-0.5s0.6-1.3,1.6-2.8s1.7-2.2,2.4-4.1c0.7-2,0-3.1-0.6-3.2c-0.6-0.1-1.8,0-3,1.1C88,49.8,83,56.2,82.3,57
			c-0.8,0.7-1,0.8-1.9,1.1c-0.9,0.4-0.9-0.2-0.9-0.6c0-0.4,1.1-2.4,2.2-3.9c1.2-1.5,2.6-2.7,3.2-4.4c0.6-1.6-0.3-2.3-1.6-2
			c-1.3,0.3-1.7-0.1-1.7-0.1s0.9-1.4,1.4-2c0.5-0.6,0.8-1.7,0.3-2c-0.5-0.2-1.3,0.3-2,1.3c-0.7,1-0.8,2.1-0.9,2.9
			c-1.6,2.6-4.7,6.4-6.4,8.4c-1.7,2-2.9,2.5-3.6,2.3S70,56,70.6,54.7c0.6-1.3,4.5-7.5,4.5-7.5h2.3l0.3-0.8h-2.3l3.2-5.7h-2.3
			l-3.5,5.9h-2.6l-0.3,0.7c0,0,1.1,0,2.4,0c-4.3,7.8-6.3,9.4-7.2,10.2s-1.5,1-2,0.8s-0.3-1.1,0.2-1.7c0.4-0.7,2.9-4.3,3.4-6.5
			c0.4-2.3-0.3-2.6-1.8-2.5s-3.6,2.3-4.2,2.8c0.3-4-2.2-3.3-4-1.4s-5.2,6.6-6.1,7.6s-2,1.6-2.3,1.5c-0.3-0.1-0.2-0.4,0.2-1.7
			C49,55,53,47.8,53,47.8c0,0-0.3,0-2.2,0c-3.5,6-5.9,8.5-6.8,9.4c-0.9,0.8-1.6,1.2-2.1,1c-0.5-0.2,0-0.9,0.4-1.5
			c0.4-0.6,2.5-3.9,3.2-5c0.7-1.1,1.5-3.3,0.4-3.8c-1.1-0.5-2.5,0.3-3.8,1.2s-2.8,2.8-3.5,2.8c1.7-3.3,0.6-4.6-0.1-4.8
			c-0.7-0.2-2,0.1-3.9,1.5c-2,1.4-7.1,6.7-8.4,7.7c-1.3,1.1-7.9,5-11.2,1.9c-3.3-3.1,0.3-10.3,1.2-12.1C27,44.6,32.5,38.1,33,35.9
			c0.6-2.3-1.3-3.1-2.4-3c-10,1.4-16,10.1-17.5,12.5c-2.6,0-9.6-1.9-7.8-8.7c1.8-6.9,9.6-6.9,9.6-6.9s0-0.1,0-0.3
			c-6.7-1.2-12.2,4.3-11.3,9.7c0.9,5.4,5.9,6.3,9.1,7.2c-3.2,9.1-0.7,13.6,4.7,13.9c5.4,0.3,9.9-3.3,11.8-4.6
			c-0.2,0.6-0.4,3.9,2,3.9s5.9-5.3,6.5-6.2c0.7,0,0.8-0.3,1.5-0.7c0.7-0.4,3.4-2.8,3.9-3.2c0.5-0.4,1.4-0.9,1.8-0.7
			c0.5,0.2,0.3,0.6-1,2.3c-1.4,1.7-2.6,3.5-3.2,4.8c-0.6,1.3-0.8,3,1,3.5c1.8,0.5,4.8-3.2,4.8-3.2s-0.3,2.9,1.1,3.1
			c1.4,0.2,2.6-0.6,5.1-3.9s4.4-5.6,5.3-6.5c0.8-0.8,1.9-0.4,1.1,1.2c-0.9,1.6-5,9-5,9c0.2,0,0.8,0,2.5,0c3.3-5.7,5.9-9.3,7.6-10.1
			s1.1,0.2,0.5,1.3c-2.2,3.4-2.6,4.6-2.9,5.5s-0.7,3.3,1.4,3.5c2.1,0.3,3.6-2,5.1-3.5c0.8,4.6,3.4,3.3,4.9,2.2
			c1.6-1.1,6.3-7.8,8-10.1c2.4-0.1,1.8,0.8,1.3,1.7c-0.5,0.9-2.7,3.4-3.3,4.2c-0.6,0.8-2.4,3.6-0.3,5.2c2,1.5,4.9-2.4,6.8-4.7
			c1.9-2.3,3.4-4.9,4.8-5.4c1.4-0.5,1.3,0.2,0.9,1c-0.3,0.8-2.8,4-3.8,5.5c-1,1.5-1.1,3.5,0.2,4.1s3.7-0.8,3.7-0.8s-0.1,0.2-1.3,2.1
			c-11,6.1-11,10.2-11,10.2s-0.6,3.4,3.2,2c6.2-2.9,9.4-10.3,10.7-12.6c3.5-2.6,8.1-6.4,8.1-6.4S101.3,53.7,101,53.4z M28.7,34.1
			c0.9-0.3,2.7-0.8,3.3,0.1c0.6,0.9-0.1,2.3-0.5,3c-0.4,0.7-6.4,7.3-14.7,7.9C16.9,45.1,21.1,37.4,28.7,34.1z M37.5,52.1
			c-0.6-0.3-1.2-0.7-1.6-0.4c-0.4,0.4-0.1,1.3,0.7,1.7c-0.9,1.7-3.2,5.4-5.2,5.3c0,0-1.1-0.2-0.6-1.3s3.1-6,6.3-9.2
			c0.4-0.3,1.4-0.9,1.6,0.5C39,50,37.8,51.7,37.5,52.1z M81,72.4c-2.6-0.2,0.2-4,0.2-4s3.3-4,8.5-6.4C89.6,62,84.3,72.6,81,72.4z"/>
		<path style="fill:#dadada;" d="M131.3,39.2c-4.3,2.1-6.8,6.3-9.5,10.5c-1,0.6-2.7,1.6-3.6,2.1c-0.9,0.5-1,0.2-1.2,0.1
			c1.8-3.2,1.9-4.7,0.8-5.2s-2.7,0.4-4.6,1.5s-7.4,7.6-8.1,8.3c-0.7,0.7-2.6,2.3-2.6,2.3l0.3,0.4c1.8-1.3,4.7-3.9,4.7-3.9
			s-0.4,3.6,1.7,4.1c2.9,0.7,6.3-4.7,7.5-6.5c0.6,0.3,2.1-0.5,4.3-1.8c-1.3,2.3-3.5,7.1-5.2,10.7c-1.7,3.7-2.5,5.8-2.6,8.3
			s3,4.1,6.3-1c3.2-5.1,3.7-10.9,3.9-12.2c3.8-1.1,4.8-3.7,4.8-3.7s-0.2,0-0.5,0c-1.4,1.8-3.4,2.5-4.1,2.6c0-0.8,0-1.2-0.8-2.2
			c-0.2-0.2-0.4-0.5-0.4-0.5s0.4-1.2,1-2.3c1-2,1-1.2,5-4.2c4-3,4.9-6.7,4.9-6.7S133.9,37.9,131.3,39.2z M116.2,51.5
			c-0.7-0.4-1.2-0.7-1.6-0.2c-0.5,0.5,0.3,1.2,0.9,1.6c-0.9,1.4-3.9,6.6-6.1,5.6c0,0-0.7-0.2-0.3-1.3s2.9-7.5,6.9-9.6
			C116.5,47.2,119,46.4,116.2,51.5z M117.8,70c-2.6,3-2.9,1.3-2.8,0.8s0.2-2.1,1.6-5.5c1.4-3.4,3-6.8,3.7-8.3l2,0.3
			C122.2,57.3,121.5,64.8,117.8,70z M122.4,56.2c-0.8,0-1.5-0.1-1.7-0.2l0.8-1.6C121.6,54.4,122.6,55.1,122.4,56.2z M132.1,40.5
			c-0.4,1.1-2.9,5.7-7.2,7.5c0,0,2.4-5.2,6.3-7.8C131.7,39.9,132.6,39.4,132.1,40.5z"/>
		<path style="fill:#dadada;" d="M152.2,43.4c0-0.8,2.4-3.1,3-3.8c0.6-0.7,1.7-2.8,0.3-3.1c-2.5-0.3-3.9,5.8-3.9,5.8l-5.3,5.6
			c0,0-2.1-3.1-6.5-2.5c-6.1,0.7-8.4,4.7-8.9,8.8s3.1,7.1,3.1,7.1l-3.9,4.5l0.9,0.1l3.6-4.2c0,0,4.3,2.8,10.1,0.1
			c6.6-3.1,7.2-9.4,7.4-11.9C152.4,47.2,152.2,44.2,152.2,43.4z M155,37.4c1.2,0.3-1.6,3.3-2.4,3.8C152.6,41.3,153.8,37.1,155,37.4z
			 M134.6,60.5c0,0-5-3.4-1.7-9.8s12.1-4.9,12.8-2.2C142.4,51.8,135.1,60,134.6,60.5z M148.5,54.4c-1.8,3.6-5.4,10.1-13.3,6.5
			c0,0,7.8-9.1,10.9-11.9c0.2,0.6,0.6,1.6-0.5,4c-0.1,0.4,0.2,1,0.6,0.3s1.3-2.2,0.5-4.9c3.1-3.4,3.7-4,4.4-4.8
			C150.8,46.8,150.4,50.6,148.5,54.4z"/>
		<path style="fill:#dadada;" d="M210.1,58.4c-0.9,0.4-1.1-0.1-1-0.4c0.1-0.4,2.8-4.4,3.3-5.1c0.5-0.7,1.9-3.3,1.3-4.8
			c-1-2.3-5.3,1.7-6.5,2.7c1.1-5-2.3-3.2-3.8-1.5s-6.5,7-6.5,7s-2.4,2.7-3.5,2.3c-1.8-0.7,0.1-4,0.6-5.1c4.1-1,6.8-3.3,6.6-5.1
			c-0.2-1.8-2.6-1-3.4-0.6c-5.3,3.1-6.1,6.6-6.6,8.4c-0.5,0.7-1.8,2.1-2.9,2.1s-0.8-1.6-0.4-2.4s9.6-17.9,9.6-17.9h-2.2
			c0,0-4.2,7.6-5.6,9.9c0-0.3-0.5-0.9-1.2-0.9c-3.1,0.2-5.2,2.6-7.1,5c-1.9,2.4-2.8,3.3-3.4,4c-0.6,0.7-3.3,3.4-4.6,2.4
			c-1.3-1,1-4.8,1-4.8s2.2-0.4,4.6-2c2.7-1.9,2.4-4.4,0.6-4.3c-4.1,0.7-5.7,3.5-7.2,5.4c-1.2-0.4-1.9-0.9-2.3-1.3
			c0.2-0.4,2.7-5.5,0.9-5.1c-1.8,0.4-2.1,3.7-2.2,5.6c-2.2,4.9-4.3,6.2-5.3,6.8c-1,0.5-1.4-0.1-1.4-0.6c0.6-2.7,5-10.3,5-10.3
			c-0.4,0-1.1,0-2.3,0c-4.1,8.4-7.5,10.7-8,11c-0.3,0.2-1.5,0.4-0.9-1c0.6-1.4,3.4-5.7,4-7.2c0.1-0.2,1.3-3.5-1.7-2.9
			c-2.9,0.7-4.9,4.5-4.9,4.5l0.5,0.1c1.9-2.6,2.5-2.8,3.5-3.5s1.3-0.2,1.3,0.4s-2.1,3.4-3.3,5.2c-1.2,1.8-1.4,4.9,0.5,5.1
			s3.3-1.7,4.7-2.9c0.1,1.6,1.2,3.9,3.6,2.5s4.8-5.7,5.6-7c0.6,0.4,0.9,0.7,2.3,1.4c-1.7,3-1,5.7,1.4,5.9c2.4,0.2,5.1-2.6,6.3-3.7
			c0,0.3,0.1,3.8,2.1,3.8s3-1.9,4.3-3.2c0.4,5.2,4.5,2.5,5.5,1.3c2.4,5.1,7.6-1.8,8.8-2.9c1.1-1.2,3.9-4.4,4.6-5
			c0.6-0.6,1.2-1.2,1.9-1c0.7,0.2-0.2,1.7-1.3,3.4s-4.5,7.1-4.5,7.1s1.4,0,2.6,0c0.6-0.9,3.9-5.9,5.8-8.2c2.9-2.9,3.5-2.6,3.8-2.4
			c0.3,0.2,0.1,1-1.1,2.4c-1.2,1.4-3,4-3.4,4.9c-0.4,0.8-0.9,3.7,1.1,3.7c2,0,4-3.3,4-3.3s-0.2-0.1-0.5-0.2
			C212.3,56.4,211.1,58,210.1,58.4z M198.9,48.7c0.6-0.3,1.4-0.6,1,0.4c-0.4,1-2,3-5.3,3.6C194.6,52.6,195.8,50.3,198.9,48.7z
			 M176.5,50c1.7-1.2,2.6-1.7,3-1.4c0.4,0.3-1.2,3.4-5.4,4.1C174.2,52.7,174.8,51.2,176.5,50z M186.2,53.5c-1.4,2.1-3.9,5.4-5.2,5.1
			c0,0-0.8-0.4-0.4-1.6c0.4-1.3,2.8-6,6-8.4c0.6-0.4,1.7-1,1.5,0.5C188,50.5,187.7,51.4,186.2,53.5z"/>
	</g>
</g>
</svg>
