<?xml version="1.0" encoding="UTF-8" standalone="no"?>
<!-- Created with Inkscape (http://www.inkscape.org/) -->

<svg
   xmlns:dc="http://purl.org/dc/elements/1.1/"
   xmlns:cc="http://creativecommons.org/ns#"
   xmlns:rdf="http://www.w3.org/1999/02/22-rdf-syntax-ns#"
   xmlns:svg="http://www.w3.org/2000/svg"
   xmlns="http://www.w3.org/2000/svg"
   xml:space="preserve"
   version="1.1"
   width="538.58264"
   height="551.33856"
   viewBox="0 0 538.58264 551.33856"
   id="svg56936">
  <defs
     id="defs56938" />
  <metadata
     id="metadata56941">
    <rdf:RDF>
      <cc:Work
         rdf:about="">
        <dc:format>image/svg+xml</dc:format>
        <dc:type
           rdf:resource="http://purl.org/dc/dcmitype/StillImage" />
        <dc:title></dc:title>
      </cc:Work>
    </rdf:RDF>
  </metadata>
  <g
     transform="translate(-116.54053,-353.75376)"
     id="layer1">
    <g
       transform="matrix(11.358734,0.79428004,0.79428004,-11.358734,-3536.9244,1210.1281)"
       id="g56385"
       style="fill:#dadada;fill-opacity:1">
      <path
         d="m 320.55069,59.71358 5.1335,0.3592 c 0.1806,0.0122 0.2698,-0.0946 0.2776,-0.2132 l 0.0665,-0.9485 c 0.008,-0.11 -0.1138,-0.2095 -0.2278,-0.2174 l -1.8591,-0.13 0.5757,-8.2452 c 0.01,-0.1357 -0.1111,-0.2257 -0.2019,-0.2322 l -0.9707,-0.0678 c -0.1181,-0.0081 -0.2276,0.0878 -0.2365,0.2076 l -0.5755,8.239 -1.835,-0.1282 c -0.1306,-0.0094 -0.2611,0.0655 -0.2717,0.2168 l -0.0632,0.8985 c -0.009,0.127 0.0954,0.2549 0.1881,0.2614"
         id="path56132"
         style="fill:#dadada;fill-opacity:1;fill-rule:nonzero;stroke:none" />
      <path
         d="m 331.59139,60.73638 c -2.8557,-0.1997 -5.0079,-2.6754 -4.8089,-5.5236 0.2,-2.8589 2.6754,-5.0076 5.5308,-4.8083 2.8474,0.1989 5.0009,2.6716 4.8011,5.5306 -0.1987,2.8478 -2.676,5.0002 -5.523,4.8013 m 0.6254,-8.9475 c -2.0891,-0.1462 -3.9055,1.4251 -4.0517,3.5204 -0.146,2.0857 1.4339,3.8931 3.5233,4.0391 2.0829,0.1457 3.8956,-1.4247 4.0413,-3.5101 0.1465,-2.0951 -1.4299,-3.9042 -3.5129,-4.0494"
         id="path56134"
         style="fill:#dadada;fill-opacity:1;fill-rule:nonzero;stroke:none" />
      <path
         d="m 337.89419,60.91368 0.9663,0.0681 c 0.0941,0.0057 0.2046,-0.0613 0.2385,-0.167 0.0432,-0.1381 2.1521,-5.9926 2.1521,-5.9926 l 2.0321,6.3451 c 0,0 0.0733,0.1408 0.1806,0.1481 l 0.2251,0.0157 c 0.0657,0.0046 0.1597,-0.0649 0.1857,-0.1222 l 2.8471,-5.9972 1.3301,6.2575 c 0.0222,0.0813 0.13,0.1762 0.2049,0.1811 l 0.9804,0.0684 c 0.1038,0.0078 0.2541,-0.1365 0.2325,-0.2541 -0.0287,-0.1179 -2.053,-9.6121 -2.053,-9.6121 -0.0154,-0.0984 -0.1095,-0.1598 -0.1538,-0.163 l -0.237,-0.0168 c -0.0689,-0.0049 -0.1384,0.0357 -0.1984,0.1387 -0.0498,0.0984 -3.0447,6.3866 -3.0447,6.3866 l -2.1651,-6.751 c -0.0335,-0.0916 -0.1195,-0.167 -0.166,-0.1697 l -0.2265,-0.016 c -0.0827,-0.0059 -0.1689,0.057 -0.2081,0.1441 -0.0357,0.0821 -3.2852,9.1442 -3.2852,9.1442 0,0 -0.0644,0.206 -10e-4,0.2728 0.0862,0.1021 0.1635,0.0913 0.1635,0.0913"
         id="path56136"
         style="fill:#dadada;fill-opacity:1;fill-rule:nonzero;stroke:none" />
      <path
         d="m 350.76349,61.56868 c 0,0 0.003,0.2448 0.2241,0.2605 l 5.3608,0.3744 c 0,0 0.2376,0.0122 0.2527,-0.2008 l 0.0663,-0.9499 c 0.006,-0.0821 -0.0752,-0.197 -0.2057,-0.2062 l -4.2186,-0.2952 0.1738,-2.4881 4.1683,0.2914 c 0.1335,0.0095 0.2292,-0.0922 0.2379,-0.2157 l 0.0662,-0.9523 c 0.008,-0.1076 -0.1097,-0.1995 -0.1787,-0.2041 l -4.1977,-0.2911 0.227,-3.253 4.164,0.2908 c 0.1467,0.0106 0.2395,-0.1059 0.2471,-0.2124 l 0.0645,-0.9239 c 0.007,-0.1027 -0.0932,-0.213 -0.2119,-0.2219 l -5.3176,-0.3714 c -0.1197,-0.0087 -0.257,0.0521 -0.2687,0.2173"
         id="path56138"
         style="fill:#dadada;fill-opacity:1;fill-rule:nonzero;stroke:none" />
      <path
         d="m 361.46899,57.08648 c 0,0 0.6422,0.0719 1.1882,0.2647 0.5479,0.1986 1.7778,0.9352 1.6561,2.6816 -0.1103,1.5761 -1.2642,2.2313 -2.0051,2.3957 -0.7419,0.1673 -2.2929,0.044 -2.2929,0.044 l -1.9729,-0.1381 c -0.1222,-0.0086 -0.2373,-0.117 -0.2276,-0.2643 l 0.6546,-9.3624 c 0.01,-0.1422 0.1387,-0.2292 0.2233,-0.2233 l 0.9634,0.0676 c 0.077,0.0057 0.2168,0.0965 0.2087,0.2151 l -0.2909,4.1646 0.1881,0.0132 3.5623,-3.9802 c 0.0808,-0.1016 0.1652,-0.1448 0.2676,-0.1375 l 1.1261,0.0783 c 0,0 0.1316,0.0144 0.1906,0.1392 0.0637,0.1247 -0.0503,0.2493 -0.0503,0.2493 l -3.3893,3.7925 z m -1.9997,1.201 -0.193,2.7557 1.6596,0.1162 c 1.3589,0.0949 1.9054,-0.4065 1.9638,-1.2442 0.0527,-0.7498 -0.3855,-1.4153 -1.7564,-1.5109"
         id="path56140"
         style="fill:#dadada;fill-opacity:1;fill-rule:nonzero;stroke:none" />
      <path
         d="m 318.37209,97.14298 0.7947,0.0557 0.5043,-7.2098 3.0698,0.2146 0.0538,-0.7711 -3.8648,-0.2701"
         id="path56142"
         style="fill:#dadada;fill-opacity:1;fill-rule:nonzero;stroke:none" />
      <path
         d="m 326.76349,97.73038 4.283,-7.7205 -0.8653,-0.0605 -1.4307,2.5398 -3.4488,-0.241 -1.0571,-2.7139 -0.8877,-0.062 3.2188,8.245 0.1878,0.0131 z m 0.019,-1.6991 -1.1648,-2.9894 2.7258,0.1906"
         id="path56144"
         style="fill:#dadada;fill-opacity:1;fill-rule:nonzero;stroke:none" />
      <path
         d="m 334.07189,97.45588 -0.0546,0.7808 4.3691,0.3056 0.0549,-0.781 -1.7786,-0.1243 0.5031,-7.1987 -0.8112,-0.0568 -0.5033,7.1988"
         id="path56146"
         style="fill:#dadada;fill-opacity:1;fill-rule:nonzero;stroke:none" />
      <path
         d="m 343.32969,99.08928 c 1.2069,0.0845 2.2521,-0.2495 3.1195,-0.9987 0.8734,-0.7513 1.3515,-1.7154 1.4334,-2.8908 0.0819,-1.17 -0.254,-2.1872 -1.0085,-3.0626 -0.763,-0.8695 -1.725,-1.342 -2.8903,-1.4235 -1.1882,-0.083 -2.2135,0.2482 -3.0879,1.0016 -0.862,0.7535 -1.3453,1.7072 -1.4258,2.86 -0.0538,0.7669 0.0843,1.4844 0.4103,2.1658 0.319,0.6814 0.7925,1.2256 1.4101,1.6449 0.6106,0.4135 1.2926,0.6513 2.0392,0.7033 m 0.0908,-0.7734 c -0.5922,-0.0413 -1.1431,-0.2371 -1.6477,-0.5823 -0.5104,-0.3445 -0.8937,-0.785 -1.1513,-1.3221 -0.2586,-0.5507 -0.3662,-1.1404 -0.3219,-1.7782 0.0663,-0.9508 0.4468,-1.7254 1.1507,-2.3349 0.7019,-0.6059 1.5229,-0.8799 2.4481,-0.8152 0.6193,0.0433 1.1777,0.236 1.6867,0.5742 0.5062,0.3385 0.8849,0.777 1.1523,1.3208 0.2524,0.5392 0.3622,1.1311 0.3181,1.7638 -0.0443,0.6333 -0.2352,1.198 -0.5601,1.6902 -0.3392,0.4913 -0.7749,0.8687 -1.3382,1.1379 -0.5584,0.271 -1.1369,0.3878 -1.7367,0.3458"
         id="path56148"
         style="fill:#dadada;fill-opacity:1;fill-rule:nonzero;stroke:none" />
      <path
         d="m 349.23569,99.30048 0.7882,0.0552 0.3366,-4.8186 c 0.0397,-0.5701 0.0748,-0.9279 0.1078,-1.0653 0.0649,-0.3147 0.1684,-0.5693 0.3319,-0.7732 0.1611,-0.199 0.3952,-0.3616 0.7063,-0.4807 0.3063,-0.123 0.6147,-0.1722 0.918,-0.1511 0.267,0.0188 0.5106,0.0924 0.7482,0.2222 0.2332,0.1274 0.427,0.2996 0.569,0.5045 0.1562,0.2101 0.2613,0.4629 0.3103,0.7486 0.0405,0.2026 0.0416,0.6288 -0.002,1.2529 l -0.3366,4.8187 0.792,0.0552 0.3368,-4.8182 c 0.0497,-0.7148 0.0235,-1.2898 -0.0868,-1.7435 -0.1097,-0.4453 -0.3586,-0.8457 -0.7514,-1.2005 -0.3949,-0.3553 -0.8898,-0.5547 -1.4799,-0.5959 -0.6463,-0.0453 -1.2028,0.0672 -1.6839,0.3416 -0.4869,0.276 -0.8175,0.6611 -1.0097,1.1599 -0.1175,0.3029 -0.2019,0.8603 -0.2581,1.6699"
         id="path56150"
         style="fill:#dadada;fill-opacity:1;fill-rule:nonzero;stroke:none" />
      <path
         d="m 356.51999,99.80968 1.5862,0.1109 c 0.8836,0.0616 1.491,0.0661 1.8042,0.0155 0.4922,-0.0751 0.8853,-0.2783 1.2102,-0.6157 0.3273,-0.3389 0.493,-0.7719 0.5292,-1.2882 0.0305,-0.4382 -0.0351,-0.8235 -0.2163,-1.167 -0.1848,-0.3469 -0.4611,-0.612 -0.8268,-0.806 -0.3649,-0.1942 -0.8925,-0.3196 -1.5556,-0.3696 l 3.1312,-3.5026 -0.9926,-0.0694 -3.1271,3.5029 -0.4508,-0.0313 0.2589,-3.7037 -0.7927,-0.0552 -0.558,7.9794 z m 0.848,-0.7254 0.1892,-2.7133 1.3815,0.0857 c 0.526,0.0367 0.9215,0.1159 1.1655,0.2332 0.2482,0.1262 0.4382,0.2956 0.5695,0.5262 0.1236,0.2368 0.1733,0.4907 0.1544,0.7641 -0.0186,0.2668 -0.1054,0.5048 -0.2638,0.7121 -0.1633,0.2086 -0.3627,0.3522 -0.603,0.427 -0.2428,0.0801 -0.6369,0.1018 -1.1837,0.0636"
         id="path56152"
         style="fill:#dadada;fill-opacity:1;fill-rule:nonzero;stroke:none" />
      <path
         d="m 344.61149,78.35778 -0.008,0.1193"
         id="path56154"
         style="fill:#dadada;fill-opacity:1;fill-rule:nonzero;stroke:none" />
      <path
         d="m 341.16239,83.04458 -4.3799,-4.7932 c 0,0 -1.3564,1.3712 -2.6271,2.1236 -1.3709,0.8031 -2.983,1.2574 -4.5494,1.1479 -3.6561,-0.2555 -6.4261,-3.1038 -6.1488,-7.0728 0.2744,-3.9226 3.4166,-6.3988 7.0727,-6.1431 1.535,0.1073 3.0682,0.7298 4.2834,1.7185 1.002,0.818 2.4425,2.5554 2.4425,2.5554 l 4.8754,-4.4494 c 0,0 -2.4657,-2.9641 -4.6713,-4.2904 -2.2192,-1.3369 -4.1584,-1.9102 -6.4732,-2.0721 -7.6798,-0.5366 -13.6683,4.5469 -14.2045,12.2145 -0.536,7.6719 5.1381,13.5468 12.3684,14.052 0,0 3.3868,0.286 6.6815,-1.035 3.282,-1.3219 5.3303,-3.9559 5.3303,-3.9559"
         id="path56156"
         style="fill:#dadada;fill-opacity:1;fill-rule:nonzero;stroke:none" />
      <path
         d="m 345.96299,77.74688 c -0.5336,-0.0375 -0.7404,-0.2091 -0.7404,-0.2091 0,0 0.2106,0.1155 0.7444,0.1527 0.5344,0.0375 0.7387,-0.0491 0.7387,-0.0491 0,0 -0.2081,0.1427 -0.7427,0.1055 m 9.8354,11.6263 0.8546,-12.224 -8.8691,11.67 -5.9066,-0.413 1.7586,-25.1555 1.897,0.133 c 0.0559,1.5015 0.1094,3.3626 0.1079,4.088 0.001,1.3061 0.0502,4.8392 -0.0166,5.7939 -0.067,0.9584 -0.1573,4.2038 -0.1573,4.2038 0,0 -0.3667,0.0068 -0.529,0.0546 0,0 -0.2467,0.0848 -0.2559,0.2164 -0.009,0.1341 0.1416,0.2553 0.1576,0.2754 l 0.008,4e-4 c 0.1798,0.0643 0.515,0.1813 1.0813,0.2208 0.5557,0.039 0.9122,-0.0296 1.0984,-0.0683 l -0.006,-4e-4 0.006,4e-4 c 0,0 0.1855,-0.1076 0.1957,-0.2507 0.01,-0.1317 -0.2305,-0.2503 -0.2305,-0.2503 -0.153,-0.07 -0.5177,-0.1279 -0.5177,-0.1279 0,0 0.3733,-3.2258 0.4401,-4.184 0.0671,-0.9546 0.6009,-4.4471 0.7752,-5.7411 0.1022,-0.7219 0.4231,-2.553 0.6825,-4.0326 l 1.9046,0.133 -0.8537,12.213 8.847,-11.6616 5.9533,0.416 -1.7585,25.1567 -6.6664,-0.466 z m -10.921,-10.0654 c 0,0 0.0416,0.142 0.1471,0.1494 l 0.3254,0.0227 -0.0227,0.3207 c 0,0 -0.0711,0.0692 -0.0773,0.1568 -0.006,0.0815 0.1695,0.1934 0.1695,0.1934 l -0.1995,2.8571 c 0,0 -0.1371,0.0433 -0.1462,0.1737 -0.009,0.1332 0.2248,0.2487 0.2248,0.2487 l -0.1343,1.9227 0.0841,0.0838 -0.0508,0.7246 0.0727,0.0729 -0.0687,0.9778 0.0543,0.0528 -0.0443,0.6379 0.027,0.0306 -0.034,0.4878 0.0119,8e-4 0.034,-0.4877 0.0319,-0.0268 0.0444,-0.6375 0.0597,-0.0451 0.0684,-0.9777 0.0821,-0.0619 0.0503,-0.7247 0.0984,-0.0712 0.1346,-1.9227 c 0,0 0.2403,-0.0822 0.2501,-0.2155 0.009,-0.1304 -0.1209,-0.1925 -0.1209,-0.1925 l 0.2001,-2.857 c 0,0 0.1938,-0.0859 0.1995,-0.1673 0.006,-0.0875 -0.0533,-0.1661 -0.0533,-0.1661 l 0.0219,-0.3208 0.3162,0.022 c 0.1111,0.0079 0.1698,-0.1271 0.1698,-0.1271 l 0.0113,-0.1589 c -0.1081,0.0281 -0.4073,0.089 -0.963,0.0502 -0.5666,-0.0397 -0.8582,-0.1438 -0.9585,-0.1845 l -0.005,-4e-4 -0.0111,0.159 z m 2.3354,-0.9373 c 0.002,-0.0251 -0.008,-0.0535 -0.0324,-0.0779 l -0.004,0.0041 c 0,0 -0.3527,0.1615 -1.2584,0.0982 -0.9007,-0.063 -1.2448,-0.2733 -1.2448,-0.2733 l -0.008,-6e-4 c -0.0254,0.019 -0.0398,0.0433 -0.0416,0.0684 l -0.004,0.0668 c 0.1238,0.0565 0.5098,0.1993 1.2907,0.2538 0.7798,0.0545 1.1777,-0.0333 1.2985,-0.0693 l 6e-4,-0.0034 0.004,-0.0668 z m -0.0119,0.1755 3e-4,-0.0047 c -0.1203,0.0327 -0.5192,0.126 -1.2985,0.0715 -0.7812,-0.0545 -1.1669,-0.2026 -1.2912,-0.2526 l -0.009,0.1198 c 0.12,0.0503 0.5106,0.1961 1.2915,0.2511 0.7793,0.0543 1.1782,-0.0354 1.2982,-0.07 l 0.008,-0.1151 z m -0.0165,0.2356 9e-4,-0.0086 c -0.1211,0.0354 -0.5196,0.1275 -1.2994,0.0729 -0.7806,-0.0545 -1.166,-0.2014 -1.2907,-0.2537 l -0.006,0.0837 c 0.051,0.1511 0.3046,0.3904 0.3046,0.3904 l 3e-4,-0.0013 0.005,4e-4 c 0.107,0.0423 0.3916,0.1429 0.9585,0.1826 0.543,0.0379 0.8366,-0.021 0.9541,-0.0476 l 0.008,-7e-4 0,0.0012 c 0,0 0.2822,-0.2016 0.3584,-0.3439"
         id="path56158"
         style="fill:#dadada;fill-opacity:1;fill-rule:nonzero;stroke:none" />
    </g>
  </g>
</svg>
