<?xml version="1.0" encoding="utf-8"?>
<!-- Generator: Adobe Illustrator 20.1.0, SVG Export Plug-In . SVG Version: 6.00 Build 0)  -->
<svg version="1.1" id="Layer_1" xmlns="http://www.w3.org/2000/svg" xmlns:xlink="http://www.w3.org/1999/xlink" x="0px" y="0px"
	 viewBox="0 0 275 275" style="enable-background:new 0 0 275 275;" xml:space="preserve">
<g id="Layer_x0020_1">
	<path style="fill:#dadada;" d="M256.1,250.2c1.4,0,2.6-0.1,2.6-1.8c0-1.4-1.4-1.5-2.5-1.5H254v3.3L256.1,250.2L256.1,250.2z
		 M254,256.6h-1.8v-11.2h4.2c2.7,0,4.1,0.9,4.1,3.2c0,2-1.2,2.9-2.9,3.1l3.2,4.9h-2.1l-2.9-4.8H254V256.6z M256,242.4
		c-4.4,0-7.8,3.4-7.8,8.4c0,4.6,3,8.4,7.8,8.4c4.3,0,7.7-3.4,7.7-8.4C263.7,245.9,260.3,242.4,256,242.4z M256,260.9
		c-5.8,0-10-4.3-10-10.1c0-6.1,4.6-10.1,10-10.1c5.3,0,9.9,4,9.9,10.1C265.9,256.9,261.3,260.9,256,260.9L256,260.9z"/>
	<polygon style="fill:#dadada;" points="88.1,159 89.9,131.1 104.5,154.5 	"/>
	<path style="fill:#dadada;" d="M149.3,12.8l-8-12.8l-7.5,12.6L124.3,1l-6,13.3L107.7,3.3l-4.6,14.1L91.1,8l-2.4,15.1l-13.1-8.2
		l-1,14.7l-14.4-6.2l1,15.2l-14.6-4.3l3.3,14.2l-15.5-1.3l4.5,13.9l-15.8-0.5l6.7,14.1l-15.1,1.5L23,88.9L7.9,92.3l10.2,11.6
		l-14.9,4.6l11.4,10.3L1,125.5l12.2,9.5L0.6,143l8.2,4.3l-0.9-3.5l14.2-3.6L44.7,176l2.1-42.7l14.5-3.7l13.8,53.2l-9.4,2.5
		l-10.3-40.3L52.2,189l-9,2.4L21,155.7l9.6,39.1l-2.6,0.7l-7.5,14l15.4,0.8l-5,14.1l15.1-1.8l-4.1,14.3l15.4-3.8l-1.9,15.1l14.4-5.8
		l0.1,15.2l12.4-7.8l2,15.4l12.3-9.8l4.5,14.9l10.6-11.1l6,14.2l9.2-11.4L135,275h0l7.5-12.4l10,11.6l5.5-13.4l11.1,10.6l4.8-14.1
		l12,8.9l2.8-14.2l12.8,8l0.3-15.6l13.9,5.7l-1-14.5l15,4.3l-3.3-15L241,228l-4.6-14.3l15.1,0.5l-6.4-13.8l15.9,0.1l-8.4-14.2
		l14.4-3.2l-9.1-12l14.2-4.5L261,155l13.3-6.2l-11.8-9.6l11.9-6.9l-2.8-1.9l-32.4,8.7l-14-53.3l9.3-2.5l11.7,44.9l15.5-4.4l11.2-9.4
		l-13.6-6.5L269.2,97l-14.7-4.3l9.2-11.9l-14.8-1.2l7.4-13L240.6,66l5.2-13.7l-14.7,1.4l3.9-14.5L220,43.1l1.3-15.8l-14,6.1
		l-0.5-15.5L194.1,25l-2.6-14.9l-12,9l-4.2-14.8l-11,10.6l-6-13.6L149.3,12.8z M77.6,182.2l4.2-58l11.8-3.3l32.1,48.5l-10.1,2.8
		l-6-9.5l-22,6l-0.8,11.2L77.6,182.2z M131.8,167.7l-11.5-44.9l-16.9,4.6l-2.1-8.5l74.8-20.1l2.4,8.1l-16.2,4.6l11.7,44.8l-9.3,2.5
		l-12-44.7l-23.4,6.2l11.5,44.9L131.8,167.7z M233.8,140.4L194.3,151l-13.7-53.3l39.3-10.6l2.3,8.4l-30.6,8.2l3.5,13.6l26.3-7.4
		l2.1,8.1l-26.1,7.3l3.8,15.1l30.6-8.1L233.8,140.4z"/>
	<polygon style="fill:#dadada;" points="10.3,153.2 1.8,160.6 13.3,164.7 	"/>
	<polygon style="fill:#dadada;" points="14.5,169 6.2,177 17.5,180.7 	"/>
	<polygon style="fill:#dadada;" points="18.7,185.2 12.2,194.3 21.3,195 	"/>
</g>
</svg>
