<?xml version="1.0" encoding="utf-8"?>
<!-- Generator: Adobe Illustrator 13.0.0, SVG Export Plug-In . SVG Version: 6.00 Build 14948)  -->
<!DOCTYPE svg PUBLIC "-//W3C//DTD SVG 1.1//EN" "http://www.w3.org/Graphics/SVG/1.1/DTD/svg11.dtd">
<svg version="1.1" id="Layer_1" xmlns="http://www.w3.org/2000/svg" xmlns:xlink="http://www.w3.org/1999/xlink" x="0px" y="0px"
	 width="300px" height="300px" viewBox="0 0 300 300" enable-background="new 0 0 300 300" xml:space="preserve">
<path fill="#dadada" d="M281.176,100.281c-1.832,0.009-9.658,2.122-8.7,1.768c0.933-0.316-13.224,4.886-12.869,2.485
	c0.345-2.401,9.557-4.765,14.871-5.463l1.944-0.819c5.033-4.001,19.225-7.677,19.868-4.271
	C296.921,97.405,283.027,100.263,281.176,100.281"/>
<path fill="#dadada" d="M269.563,266.834c-1.982,0-3.601-1.556-3.601-3.621c-0.029-2.065,1.618-3.647,3.628-3.647
	c2.002,0,3.62,1.582,3.62,3.647c0,2.038-1.592,3.621-3.62,3.621H269.563"/>
<g>
	<g>
		<path fill="#dadada" d="M257.828,121.786c0.847,0.316,3.742,0.466,5.314,0.54l1.693-0.688c2.735-3.266-2.252-4.96-3.854-4.438
			c-3.888,1.238-6.234-1.843-8.756-3.992c-0.837-0.717-1.517-2.531-1.313-4.011c0.495-3.434,2.606-3.75,4.169-7.035
			c0.15-0.315,1.732-2.131,0.158-4.16c-3.536-3.071-8.999,3.675-13.483,5.574l-3.618-0.13c-13.057-4.681,3.563-12.935,1.116-21.338
			c-0.168-0.54-2.626-2.792-4.487-3.238c-6.94-2.066,0.187-13.912-9.173-11.353l-2.095-0.595c-4.365-3.499-12.005-2.327-14.825-7.24
			l0.049-1.75c6.754-15.149,18.703-35.343,18.973-37.008c0.278-1.694-1.238-0.772-1.238-0.772c-2.78,2.13-3.582,5.769-4.829,8.691
			c-1.265,4.076-7.277,4.643-6.625,9.314l0.102,1.619c-1.079,7.435-9.073,7.994-15.373,9.957l-2.623,0.447
			c-6.533-0.456-6.793-8.877-11.382-12.628c-0.474-0.4-1.563-0.958-2.588-0.791c-3.824,1.061-6.196,3.778-8.318,6.7
			c-0.931,1.34-4.188,1.703-6.951,1.833c-13.824,0.335-23.157,8.766-33.049-5.332c-1.489-2.615-4.532-3.602-7.007-2.838
			c-7.146,1.721-10.553,7.454-18.351,3.546c-0.912-0.81-2.317-3.127-2.68-4.077c-0.373-0.94-1.145-4.188-1.675-4.885
			c-2.419-3.173-5.555-13.14-5.583-13.447c-0.307-3.406-2.048-13.409-4.383-7.398c-1.619,5.435,3.639,8.348,4.857,13.251
			c1.145,8.542,6.784,16.257,8.561,25.758l-0.065,1.815c-0.726,1.74-2.503,2.13-4.243,2.587l-1.796-0.14
			c-4.708-1.936-9.166-7.593-14.033-5.053l-0.438,1.117c3.248,3.369,0.615,8.263,3.313,11.781l0.484,1.126l-0.251,1.823
			c-1.367,3.695-3.936,3.881-5.406,7.436l-0.967,1.014c-7.594,2.382-8.208,9.744-13.894,14.387
			c-6.355,7.268-13.316-0.54-19.793-1.405c-2.187-0.289-4.141,0.913-4.997,1.321c-0.921,0.447-1.675,2.569-1.461,3.508
			c0.279,1.229,8.059,4.197,12.711,6.31l1.07,0.837c5.844,7.529-2.14,13.717-4.774,20.604c-2.652,4.373-6.244-1.61-9.91,1.824
			c-4.541,3.47-3.22,5.192-1.266,7.834c1.107,1.098,4.606,2.997,6.867,3.229c11.54,1.09,9.659,15.858,7.361,24.605
			c-2.001,4.736-8.971,6.681-11.577,7.956c-2.466,1.061-13.623,1.954-18.993,5.546c-4.253,2.838-5.76,7.286-4.662,9.78
			c1.108,2.512,10.431-1.079,13.093-4.468c2.289-2.493,11.12,1.164,15.457,0.112c13.046-3.471,15.251,4.876,24.65,11.26
			c1.898,1.964,5.826,3.723,6.486,5.881c1.619,4.031,4.336,10.962,6.755,14.219c3.22,4.03,9.427,11.243,9.539,14.611
			c-0.167,5.61-3.48,11.316-6.114,15.856c-1.415,2.997,2.364,5.368,4.69,5.414c2.438-0.315,6.942-5.693,7.761-9.612
			c3.099-9.928,16.071-4.084,24.157-4.783c0.345-0.017,2.857,0.673,4.551,1.398c4.252,1.543,3.815,4.298,8.821,2.725
			c1.917-0.716,4.215,0.549,6.207,1.563c8.896,3.043-2.456,23.768,6.421,28.095c8.859,4.298,0.316-18.1,5.723-26.438
			c3.844-4.961,9.822-8.404,16.038-9.557c4.951-0.039,11.074,8.132,12.069,13.568c1.286,5.125,2.691,11.48,7.873,11.937l0.82-0.847
			c0.306-4.577-2.866-9.472-2.728-14.051l-0.307-2.604c-1.842-5.249-9.261-8.823-5.63-12.786c2-2.121,5.305-4.179,5.788-4.569
			c4.597-3.667,7.725,6.05,13.194,3.805c1.015-0.397,3.424-1.963,3.424-5.099c0.653-7.872,6.776-10.534,14.034-12.619l1.964-1.051
			c3.145-2.922,0.762-5.463,2.337-9.035c1.432-3.211,2.354-3.5,4.084-3.77c10.683-1.925,25.925,12.722,28.493,14.462
			c1.116,0.763,5.63,1.573,6.71,0.361c0.633-0.706,0.476-3.154,0.065-5.341l-1.257-1.76c-6.226-5.108-15.735-6.001-22.919-9.779
			l-2.281-1.758l-1.228-1.647c-2.922-6.086-4.523-13.884-6.254-19.672c-1.229-4.104,0.298-12.349,4.95-19.374
			c1.396-1.75,1.937-7.296,1.861-7.873c-1.257-8.301,8.989-9.781,13.828-14.22C255.204,122.057,256.619,121.367,257.828,121.786
			 M80.971,274.398c-2.866-1.768-0.567-7.072-0.316-8.283c0.27-1.198-0.782-1.878,2.01-3.776c2.81-1.899,1.405,7.519,1.302,8.104
			C83.855,270.993,82.59,273.915,80.971,274.398z M68.008,280.169c0.056-0.951-1.517-1.369-2.289-0.354
			c-0.772,0.995-2.782,5.742,0.047,7.295C68.278,285.872,67.934,281.135,68.008,280.169z M9.057,186.907
			c0.893-2.215-1.378-5.955-4.076-3.881l-0.577,0.698c-0.577,1.042-1.805,1.927-0.921,3.079c1.536,1.275,3.257,1.369,4.969,0.699
			L9.057,186.907z"/>
	</g>
</g>
<g>
	<defs>
		<path id="SVGID_1_" d="M257.791,121.814c0.857,0.251,3.77,0.428,5.315,0.512l1.711-0.688c2.744-3.256-2.224-4.97-3.852-4.458
			c-3.863,1.285-6.179-1.805-8.749-3.944c-0.863-0.773-1.543-2.579-1.293-4.03c0.521-3.434,2.577-3.779,4.123-7.035
			c0.167-0.345,1.796-2.141,0.167-4.207c-3.516-2.996-9.008,3.695-13.466,5.584l-3.602-0.093
			c-13.036-4.718,3.519-12.943,1.119-21.347c-0.178-0.521-2.662-2.839-4.458-3.267c-6.953-2.057,0.167-13.893-9.176-11.315
			l-2.15-0.604c-4.373-3.518-12.003-2.308-14.832-7.203l0.082-1.796c6.775-15.094,18.696-35.334,18.956-36.971
			c0.252-1.712-1.199-0.764-1.199-0.764c-2.829,2.057-3.602,5.742-4.895,8.655c-1.201,4.038-7.203,4.634-6.599,9.352l0.085,1.545
			c-1.034,7.463-9.008,8.059-15.354,10.031l-2.652,0.428c-6.522-0.512-6.775-8.915-11.325-12.609
			c-0.513-0.428-1.547-1.024-2.568-0.856c-3.863,1.117-6.263,3.778-8.319,6.691c-0.95,1.377-4.207,1.712-6.952,1.889
			c-13.889,0.345-23.231,8.748-33.096-5.322c-1.46-2.652-4.55-3.602-7.034-2.829c-7.119,1.722-10.544,7.379-18.351,3.518
			c-0.856-0.856-2.317-3.173-2.661-4.113c-0.345-0.949-1.117-4.113-1.628-4.895c-2.485-3.164-5.575-13.12-5.575-13.372
			c-0.344-3.433-2.057-13.465-4.457-7.463c-1.545,5.491,3.685,8.403,4.886,13.298c1.116,8.486,6.774,16.2,8.58,25.72l-0.093,1.805
			c-0.68,1.796-2.484,2.141-4.197,2.662l-1.805-0.177c-4.718-1.972-9.175-7.63-14.061-5.062l-0.428,1.117
			c3.257,3.351,0.596,8.235,3.341,11.753l0.428,1.117l-0.251,1.879c-1.377,3.694-3.945,3.862-5.406,7.379l-0.939,1.033
			c-7.631,2.4-8.236,9.771-13.894,14.405c-6.347,7.286-13.298-0.521-19.812-1.377c-2.15-0.335-4.123,0.856-4.979,1.293
			c-0.94,0.428-1.713,2.569-1.452,3.508c0.251,1.201,8.059,4.207,12.692,6.347l1.107,0.772c5.834,7.547-2.14,13.726-4.802,20.667
			c-1.452,2.234-3.08,1.722-4.885,1.118c-1.545-0.512-3.257-0.94-4.979,0.688c-4.625,3.434-3.257,5.146-1.284,7.808
			c1.117,1.106,4.55,2.996,6.867,3.257c11.484,1.023,9.604,15.866,7.37,24.614c-2.057,4.718-9.007,6.69-11.576,7.891
			c-2.484,1.116-13.632,1.973-19.039,5.574c-4.206,2.828-5.741,7.286-4.634,9.771c1.117,2.494,10.376-1.023,13.038-4.457
			c1.284-1.461,4.634-0.856,8.059-0.345c2.745,0.429,5.49,0.856,7.463,0.429c13.037-3.425,15.178,4.895,24.614,11.324
			c1.888,1.973,5.834,3.685,6.523,5.826c1.628,4.038,4.28,10.98,6.69,14.237c3.257,4.038,9.426,11.241,9.604,14.58
			c-0.177,5.659-3.518,11.326-6.179,15.866c-1.367,3.007,2.401,5.407,4.718,5.407c2.484-0.26,6.951-5.666,7.808-9.612
			c2.14-7.025,9.259-6.087,16.033-5.229c2.829,0.345,5.658,0.688,8.059,0.521c0.345-0.095,2.922,0.595,4.551,1.366
			c4.29,1.546,3.862,4.291,8.831,2.747c1.972-0.774,4.206,0.512,6.262,1.544c8.831,2.997-2.484,23.758,6.347,28.048
			c8.915,4.373,0.344-18.101,5.742-26.42c3.861-4.978,9.859-8.401,16.037-9.521c4.97-0.082,11.066,8.154,12.088,13.552
			c1.286,5.145,2.662,11.49,7.893,11.92l0.771-0.856c0.345-4.551-2.827-9.436-2.66-14.061l-0.345-2.578
			c-1.88-5.229-9.261-8.83-5.659-12.776c2.059-2.141,5.325-4.206,5.837-4.551c2.4-1.963,4.373-0.167,6.596,1.639
			c1.891,1.533,3.946,3.172,6.608,2.141c0.939-0.43,3.434-1.974,3.434-5.063c0.595-7.892,6.773-10.545,13.976-12.609l1.974-1.109
			c3.174-2.922,0.771-5.404,2.317-9.006c1.451-3.257,2.4-3.518,4.113-3.779c10.719-1.963,25.896,12.693,28.476,14.498
			c1.116,0.689,5.657,1.546,6.69,0.345c0.68-0.688,0.513-3.174,0.083-5.321l-1.199-1.799c-6.264-5.145-15.783-6.001-22.986-9.779
			l-2.232-1.796l-1.284-1.628c-2.912-6.095-4.458-13.894-6.171-19.645c-1.294-4.112,0.252-12.348,4.888-19.383
			c1.461-1.712,1.971-7.287,1.888-7.892c-1.293-8.319,8.999-9.77,13.801-14.228C255.214,122.065,256.59,121.377,257.791,121.814
			 M80.952,274.381c-2.829-1.713-0.512-7.035-0.251-8.236c0.251-1.201-0.866-1.888,1.963-3.769c2.838-1.974,1.377,7.452,1.293,8.059
			C83.874,271.029,82.581,273.951,80.952,274.381 M68.008,280.205c0.084-1.024-1.544-1.368-2.317-0.427
			c-0.772,1.031-2.745,5.749,0.083,7.295C68.259,285.872,67.915,281.154,68.008,280.205 M9.085,186.907
			c0.856-2.233-1.368-5.919-4.113-3.862l-0.605,0.68c-0.512,1.032-1.796,1.889-0.856,3.089c1.545,1.285,3.257,1.378,4.979,0.689
			L9.085,186.907"/>
	</defs>
	<clipPath id="SVGID_2_">
		<use xlink:href="#SVGID_1_"  overflow="visible"/>
	</clipPath>
	<g clip-path="url(#SVGID_2_)">
		<g>
			<path fill="#111111" d="M191.368,131.129c3.053,4.653,1.891,11.121-0.66,15.569c-2.643,3.424-6.031,6.597-10.489,6.346
				c-1.423-1.032-3.479-1.675-4.141-3.48c-0.492-4.653,0.084-9.213,0.111-13.792l-0.65-0.289l-1.554,0.671l-0.289-0.438
				c0.484-2.29-1.005-5.667,1.843-6.747C180.284,126.29,188.131,125.583,191.368,131.129"/>
			<path fill="#111111" d="M247.499,112.891c0.493,7.239,0.148,14.208-0.157,21.142l0.41,1.935
				c-1.638,1.303-4.254,1.303-6.172,0.698c-2.177-3.406-3.321-7.434-5.341-10.85l0.01,12.255l-1.265,1.628
				c-1.546,0.168-3.992,0.894-4.878-0.734c0.049-7.78-0.315-15.727,0.588-23.236c0.138-1.461,1.684-1.088,2.613-1.424
				c1.91,0.14,4.179,0.289,5.092,2.374c1.191,1.843,2.104,3.89,3.079,5.843l0.224-0.325c-0.073-3.34-0.289-6.7,0.157-9.808
				c1.379-1.164,3.51-0.624,5.046-0.354L247.499,112.891"/>
			<path fill="#111111" d="M227.129,121.052c2.327,7.518,2.551,16.731-4.064,21.886c-1.861,1.293-4.757,1.722-6.858,0.745
				c-4.868-2.447-5.958-8.068-5.63-13.251c0.23-4.662,2.242-9.557,6.55-12.106c0.709-0.373,1.647-0.578,2.512-0.456l0.83,2.26
				c1.152-1.172,1.852-3.833,3.917-3.107C225.809,118.055,226.338,119.683,227.129,121.052"/>
			<path fill="#111111" d="M209.431,121.303c0.157,1.944,0.614,4.16-0.866,5.481c-2.614,0.735-5.564,0.828-8.04,1.833
				c0.559,0.502,1.806,0.391,1.881,1.33c0.325,0.651-0.41,1.592,0.521,1.861c1.944-0.317,3.881-1.172,5.909-0.94
				c0.903,1.638,0.391,3.872,0.008,5.622l-0.772,0.558l-5.61,1.182l-0.299,0.391c-0.072,0.883-0.391,2.037,0.243,2.838l6.113-1.219
				l0.847,1.61c0.121,1.35-0.056,2.569-0.503,3.759l-1.089,0.633l-8.385,1.768c-1.422-0.14-2.755-1.545-3.329-2.727l-0.243-4.988
				c-0.689-0.371-1.461-0.771-1.471-1.74c0.243-1.795-0.745-4.532,1.619-5.127c0.466-1.005,0.141-2.307,0.223-3.47
				c-0.52-0.54-1.655,0.233-1.917-0.726c0.394-2.029-1.061-5.286,1.536-6.021c3.759-1.126,7.751-1.899,11.717-2.643
				C208.259,120.464,209.365,120.307,209.431,121.303"/>
			<path fill="#dadada" d="M220.635,136.191l-1.628,0.829c-2.466-1.536-1.806-5.239-1.602-7.752c0.141-2.26,1.769-4.104,2.941-5.955
				C222.29,127.007,222.45,132.506,220.635,136.191"/>
			<path fill="#111111" d="M172.347,134.238c2.095,6.904,2.56,15.214-2.53,20.779c-1.918,1.759-4.522,3.052-7.254,2.271
				c-3.983-1.088-6.049-5.063-6.515-8.869c-0.586-6.439,0.382-13.074,6.161-16.795c0.818-0.279,1.73-0.867,2.689-0.512l0.692,2.093
				c1.359-0.959,1.973-3.861,4.058-2.922C171.016,131.269,171.64,132.823,172.347,134.238"/>
			<path fill="#111111" d="M150.223,136.35c0.038,5.796-0.642,11.38-0.335,17.29l0.271,0.214c2.205-0.27,4.233-1.117,6.374-1.293
				c0.818,0.893,0.326,2.214,0.456,3.331c-0.093,1.023-0.084,2.057-0.717,2.912l-1.2,0.605l-7.175,1.498
				c-1.861-0.577-3.583-2.4-4.42-4.085c-0.438-7.026,0.195-13.717,0.707-20.436c1.358-0.987,3.313-0.753,5.006-0.735L150.223,136.35
				"/>
			<path fill="#dadada" d="M184.762,133.781c1.843,1.312,2.197,3.647,2.112,5.732c-0.381,2.335-1.508,5.174-3.956,6.03
				c-0.289-3.527,0.084-7.083-0.103-10.655c-0.446-1.303-1.871-1.396-2.987-1.526C181.41,132.711,183.384,132.795,184.762,133.781"
				/>
			<path fill="#111111" d="M141.987,138.025c0.484,1.75,0.131,3.48-0.176,5.09l-0.95,0.605c-2.624,0.447-5.249,1.023-7.733,1.73
				l1.843,0.977l0.521,2.178c1.963-0.307,3.76-1.116,5.891-0.921c0.688,0.753,0.465,2.065,0.502,3.052
				c-0.074,1.023-0.121,2.057-0.707,2.922c-2.029,0.613-4.197,0.865-6.226,1.461c-0.521,0.847-0.344,1.861-0.363,2.829l1.61,0.13
				c1.693-0.345,3.285-1.061,5.09-0.996c1.144,1.387,0.614,3.527,0.326,5.054l-0.68,0.698l-8.617,2.047
				c-1.638,0.027-3.043-1.368-3.788-2.727c-0.205-1.619-0.159-3.351-0.232-5.007c-0.382-0.651-1.471-0.345-1.349-1.349
				c-0.242-1.646-0.28-3.276,0.232-4.729c0.344-0.604,1.293-0.324,1.48-1.209c-0.242-1.116,0.483-2.242-0.27-3.247
				c-0.726,0.12-1.694,0.204-1.778-0.755c0.251-1.991-0.688-4.792,1.508-5.722c3.676-1.116,7.557-1.879,11.446-2.625
				C140.406,137.532,141.671,137.02,141.987,138.025"/>
			<path fill="#dadada" d="M166.028,149.257l-1.68,1.042c-0.968-0.56-1.842-6.012-1.749-7.24c0.242-2.374,1.34-4.401,3.01-6.3
				C167.573,140.333,167.555,145.608,166.028,149.257"/>
			<path fill="#111111" d="M81.734,145.963c0.083,5.174-0.465,10.161-0.41,15.335l-0.335,13.177c0.14,0.848,1.015,1.591,0.382,2.466
				c-1.647,1.062-4.215,1.313-6.058,0.68l-0.903-1.08c-2.196-4.969-4.383-9.966-6.57-14.926l-0.205,0.642l0.112,17.598l-1.396,1.424
				c-1.74,0.391-4.15,0.931-5.378-0.493l-0.289-1.237c-0.205-9.743-0.056-19.374,0.521-28.848l0.958-1.591
				c2.28-0.605,4.736-0.242,6.719,0.66c2.122,3.21,3.815,6.588,5.285,10.079l0.224-0.373l0.688-12.265l1.275-1.703
				C78.067,145.273,80.552,144.446,81.734,145.963"/>
			<path fill="#111111" d="M126.02,142.473c-0.187,5.49-1.917,10.933-6.468,14.573c2.345,2.81,5.23,5.35,7.286,8.281
				c0.168,1.955-1.936,3.071-3.22,4.02c-1.805,0.959-2.531-1.404-3.675-2.187l-4.504-5.247l-0.214,0.642
				c0.111,2.148,0.205,4.243-0.102,6.244c-0.763,1.015-2.541,0.632-3.75,0.753c-0.837-0.195-1.963,0.074-2.41-0.865l0.419-20.834
				c0.148-1.173-0.056-2.401,0.53-3.397c1.526-0.819,3.946-1.079,5.555-0.399c0.838,1.591,0.056,3.321,0.242,5.034
				c-0.056,0.977-0.298,1.936-0.195,2.958l0.27,0.233c3.536-2.448,3.722-6.562,4.681-10.163c0.791-0.716,2.14-0.475,3.145-0.521
				C124.502,141.672,125.405,141.821,126.02,142.473"/>
			<path fill="#111111" d="M106.924,148.243c0.791,1.721,1.442,4.02,0.483,5.806c-1.116,1.285-2.885,1.684-4.503,1.536
				c-1.201-0.699,0.251-3.146-1.638-2.718c-1.824,2.634-1.656,5.881-1.759,9.046c0.326,1.302,0.093,2.985,1.293,3.74
				c2.019-0.4,0.903-2.68,2.187-3.74c1.135-0.987,2.931-1.62,4.43-1.006c0.856,0.902,0.661,2.54,0.614,3.694
				c-0.446,2.772-1.73,5.835-4.476,7.286c-1.367,0.819-3.117,1.304-4.811,1.043c-5.081-1.964-5.481-7.695-5.686-12.722
				c0.354-5.22,2.01-11.585,7.695-13.53C102.904,145.841,105.593,146.13,106.924,148.243"/>
			<path fill="#111111" d="M91.849,150.903l0.028,2.755L91.3,174.325c-1.415,1.573-4.336,1.471-6.151,0.782
				c-1.163-0.912-0.391-2.466-0.763-3.76c0.177-6.597,0.149-13.399,1.005-20.081c1.173-1.452,3.574-1.499,5.397-1.248
				L91.849,150.903"/>
			<path fill="#111111" d="M248.432,113.132l0.938-1.591l1.563,0.995l-0.939,1.573L248.432,113.132 M250.05,114.379
				c0.838-0.195,1.415-1.014,1.209-1.917c-0.204-0.903-1.097-1.368-1.935-1.182c-0.837,0.195-1.415,1.033-1.211,1.927
				C248.319,114.1,249.203,114.575,250.05,114.379z M249.39,113.021l0.306-0.065l0.644,0.661l0.315-0.065l-0.68-0.66l0.335-0.614
				l-0.752-0.354l-0.68,0.149l0.417,1.786l0.279-0.064L249.39,113.021z M249.342,112.797l-0.129-0.567l0.361-0.074l0.446,0.167
				l-0.361,0.4L249.342,112.797z"/>
		</g>
	</g>
</g>
</svg>
