<?xml version="1.0" encoding="UTF-8" standalone="no"?><!DOCTYPE svg PUBLIC "-//W3C//DTD SVG 1.1//EN" "http://www.w3.org/Graphics/SVG/1.1/DTD/svg11.dtd"><svg width="100%" height="100%" viewBox="0 0 2880 2880" version="1.1" xmlns="http://www.w3.org/2000/svg" xmlns:xlink="http://www.w3.org/1999/xlink" xml:space="preserve" xmlns:serif="http://www.serif.com/" style="fill-rule:evenodd;clip-rule:evenodd;stroke-linejoin:round;stroke-miterlimit:1.41421;">
  <title>Bean (Icon 1.0)</title>

  <g id="bean.-icon">
    <path d="M2332.69,940.083c-187.873,41.025 -462.244,206.933 -680.099,426.49c-217.858,219.557 -357.766,433.295 -722.084,550.945c-138.25,44.647 -283.944,48.35 -350.972,79.962c-33.678,15.883 -27.044,69.365 -9.114,93.271c59.408,79.204 133.164,147.287 209.946,186.623c345.064,176.781 690.734,140.07 1097.65,-83.969c426.589,-234.867 621.044,-504.426 641.269,-847.049c6.697,-113.478 -34.577,-261.555 -91.179,-364.633c-23.58,-42.942 -60.635,-49.235 -95.421,-41.64Z" style="fill:#c30463;"/>
    <path d="M494.832,1884.17c98.406,5.452 167.437,-21.546 304.303,-77.136c341.315,-138.622 491.804,-308.728 731.856,-595.698c177.704,-212.434 412.083,-294.247 759.382,-350.845c27.853,-4.539 13.776,-86.238 -33.027,-139.915c-238.954,-274.031 -643.958,-328 -1234.91,-23.484c-629.788,324.53 -764.802,931.226 -595.352,1146.07c12.845,16.284 47.709,39.902 67.745,41.011Z" style="fill:#c30463;"/></g></svg>
