<?xml version="1.0" encoding="UTF-8" standalone="no"?>
<!DOCTYPE svg PUBLIC "-//W3C//DTD SVG 1.1//EN" "http://www.w3.org/Graphics/SVG/1.1/DTD/svg11.dtd">
<svg version="1.1" width="100%" height="100%" viewBox="0 0 2880 2880" xmlns="http://www.w3.org/2000/svg" xmlns:xlink="http://www.w3.org/1999/xlink" xml:space="preserve" xmlns:serif="http://www.serif.com/" style="fill-rule:evenodd;clip-rule:evenodd;stroke-linejoin:round;stroke-miterlimit:1.41421;">

  <title>Boom12 (Mark 1., pink)</title>

  <style>.pink { fill:#c30463; }</style>

  <g id="boom12.-mark">
    <path class="pink" d="M2790,1440.02l-156.64,-104.064l-361.869,-240.346l85.918,-425.84l37.192,-184.345l-184.346,37.179l-425.842,85.926l-240.359,-361.865l-104.064,-156.66l-104.052,156.66l-240.346,361.865l-425.843,-85.926l-184.344,-37.179l37.194,184.345l85.91,425.84l-361.864,240.346l-156.645,104.064l156.645,104.052l361.864,240.346l-85.91,425.842l-37.194,184.346l184.344,-37.179l425.843,-85.931l240.346,361.869l104.052,156.64l104.064,-156.64l240.359,-361.869l425.842,85.931l184.346,37.179l-37.192,-184.346l-85.918,-425.842l361.869,-240.346l156.64,-104.052Zm-225.749,0l-431.816,-286.823l102.527,-508.145l-508.124,102.524l-286.848,-431.802l-286.811,431.802l-508.132,-102.524l102.509,508.145l-431.802,286.823l431.802,286.823l-102.509,508.124l508.132,-102.515l286.811,431.804l286.848,-431.804l508.124,102.515l-102.527,-508.124l431.816,-286.823Z"/>
    <path class="pink" d="M1439.99,2338.48l-182.759,-275.138l-26.257,-39.541l209.016,-20.983l209.041,20.983l-26.269,39.541l-182.772,275.138Z"/>
    <path class="pink" d="M1092.59,1912.16l-214.718,-660.802l301.561,-175.985l260.554,-343.212l260.579,343.212l301.558,175.985l-214.715,660.802l-347.422,-34.879l-347.397,34.879Zm581.295,-153.178l-233.898,-122.947l-233.848,122.947l44.653,-260.417l-189.208,-184.421l261.492,-38.004l116.911,-236.934l116.936,236.934l261.504,38.004l-189.22,184.421l44.678,260.417Z"/>
    <path class="pink" d="M541.524,1440.02l219.039,-145.505l120.56,371.079l-64.457,-42.815l-275.142,-182.759Z"/>
    <path class="pink" d="M2063.34,1622.77l-64.473,42.815l120.573,-371.079l219.038,145.505l-275.138,182.759Z"/>
  </g>
</svg>
