<?xml version="1.0" encoding="UTF-8" standalone="no"?>
<!DOCTYPE svg PUBLIC "-//W3C//DTD SVG 1.1//EN" "http://www.w3.org/Graphics/SVG/1.1/DTD/svg11.dtd">
<svg version="1.1" width="100%" height="100%" viewBox="0 0 600 600" xmlns="http://www.w3.org/2000/svg" xmlns:xlink="http://www.w3.org/1999/xlink" xml:space="preserve" xmlns:serif="http://www.serif.com/" style="fill-rule:evenodd;clip-rule:evenodd;stroke-linejoin:round;stroke-miterlimit:2;">
    <g id="mark-1" serif:id="mark 1" transform="matrix(1,0,0,1,-75,57.7231)">
        <g transform="matrix(1,0,0,1,0,2.27693)">
            <path d="M368.637,346.136C372.151,349.65 377.849,349.65 381.363,346.136C381.722,345.778 382.1,345.4 382.5,345C395.777,331.725 442.5,330 442.5,330C488.724,330 529.179,347.729 570,360C619.899,375 622.052,364.507 629.561,358.639C633.591,354.834 639.025,352.5 645,352.5C645,352.5 645,352.5 645,352.501C644.981,364.933 634.897,375 622.466,375C616.903,375 612.5,375 612.5,375C612.5,375 589.782,374.714 570,390L515,432.5C498.23,447.505 466.781,466.137 442.5,475.25C418.219,484.363 401.877,487.5 375,487.5C348.123,487.5 331.781,484.363 307.5,475.25C283.219,466.137 251.77,447.505 235,432.5L180,390C160.218,374.714 137.5,375 137.5,375C137.565,374.935 133.104,374.918 127.471,374.923C115.076,374.93 105.019,364.895 105,352.5C105,352.5 105,352.5 105,352.5C110.975,352.5 116.409,354.834 120.439,358.639C127.948,364.507 130.201,375 180,360C220.814,347.706 261.276,330 307.5,330C307.5,330 354.223,331.725 367.5,345C367.9,345.4 368.278,345.778 368.637,346.136ZM375,420C375,375 285,375 285,375L465,375C465,375 375,375 375,420Z" style="fill:#c30463;"/>
        </g>
        <g transform="matrix(0.880741,0,0,0.880741,3.88889,132.37)">
            <circle cx="114.802" cy="124.79" r="25.547" style="fill:#c30463;"/>
        </g>
    </g>
</svg>
