<?xml version="1.0" encoding="UTF-8" standalone="no"?><!DOCTYPE svg PUBLIC "-//W3C//DTD SVG 1.1//EN" "http://www.w3.org/Graphics/SVG/1.1/DTD/svg11.dtd"><svg width="100%" height="100%" viewBox="0 0 148 42" version="1.1" xmlns="http://www.w3.org/2000/svg" xmlns:xlink="http://www.w3.org/1999/xlink" xml:space="preserve" style="fill-rule:evenodd;clip-rule:evenodd;stroke-linejoin:round;stroke-miterlimit:1.41421;"><clipPath id="_clip1"><path d="M1.013,35.996l8.738,5.048l-2.691,-10.865l-6.047,5.817Zm26.199,-5.037l8.737,-5.04l-8.737,5.04Zm-14.976,-5.763l6.238,10.805l0.002,-10.079l-3.178,-3.671l-3.062,2.945Zm-11.223,-19.442l0,30.242l3.743,-15.124l-3.743,-15.118Zm0,0l5.238,9.075l0.583,-2.353l-5.821,-6.722Zm52.4,-0.001l-26.2,15.124l8.736,5.042l17.464,10.081l0,-30.247l-8.731,-5.04l8.731,5.04Zm-26.207,5.041l17.476,-10.081l-17.47,10.071l-17.466,-10.075l17.46,10.085Z"/></clipPath><g clip-path="url(#_clip1)"><path d="M27.213,67.244l-46.367,-46.367l46.367,-46.367l46.368,46.367l-46.368,46.367Z" style="fill:url(#_Linear2);fill-rule:nonzero;"/></g><clipPath id="_clip3"><path d="M18.483,15.836l2.175,1.259l6.542,-6.301l-13.085,-2.516l4.368,7.558Zm-10.928,-6.3l6.56,3.775l-1.867,-5.399l-4.095,-0.778l-0.598,2.402Z"/></clipPath><g clip-path="url(#_clip3)"><rect x="7.125" y="6.79" width="20.375" height="10.688" style="fill:url(#_Linear4);"/></g><clipPath id="_clip5"><path d="M7.053,30.178l2.691,10.866l8.732,-5.029l-6.235,-10.805l-5.188,4.968Z"/></clipPath><g clip-path="url(#_clip5)"><rect x="0.75" y="24.446" width="18.094" height="16.938" style="fill:url(#_Linear6);"/></g><clipPath id="_clip7"><path d="M4.75,20.857l1.498,-6.031l-5.236,-9.061l3.738,15.092Z"/></clipPath><g clip-path="url(#_clip7)"><rect x="0.75" y="5.415" width="18.094" height="17.281" style="fill:url(#_Linear8);"/></g><clipPath id="_clip9"><path d="M35.942,35.999l8.744,5.045l8.729,-5.045l-17.473,-10.076l0,10.076Z"/></clipPath><g clip-path="url(#_clip9)"><rect x="35.594" y="25.509" width="18.25" height="15.906" style="fill:url(#_Linear10);"/></g><clipPath id="_clip11"><path d="M22.852,23.4l4.365,7.559l8.731,-5.042l-8.731,-5.043l-4.365,2.526Z"/></clipPath><g clip-path="url(#_clip11)"><rect x="22.469" y="20.603" width="13.719" height="10.688" style="fill:url(#_Linear12);"/></g><clipPath id="_clip13"><path d="M19.73,17.994l0.922,-0.898l-2.176,-1.255l1.254,2.153Zm-12.892,-5.514l8.463,9.773l1.433,-1.385l-2.624,-7.561l-6.543,-3.773l-0.729,2.946Z"/></clipPath><g clip-path="url(#_clip13)"><rect x="6.5" y="9.228" width="14.344" height="13.344" style="fill:url(#_Linear14);"/></g><clipPath id="_clip15"><path d="M1.012,35.988l6.048,-5.812l-2.302,-9.314l-3.746,15.126Zm5.241,-21.156l5.982,10.373l3.057,-2.961l-8.457,-9.768l-0.582,2.356Z"/></clipPath><g clip-path="url(#_clip15)"><rect x="0.781" y="12.134" width="14.781" height="24.125" style="fill:#254b3a;"/></g><clipPath id="_clip16"><path d="M4.754,20.871l2.303,9.31l5.181,-4.984l-5.987,-10.365l-1.497,6.039Z"/></clipPath><g clip-path="url(#_clip16)"><rect x="4.438" y="14.478" width="8.156" height="16.094" style="fill:url(#_Linear17);"/></g><clipPath id="_clip18"><path d="M27.191,10.799l-6.522,6.302l6.552,3.773l26.179,-15.113l-8.716,-5.038l-17.493,10.076Z"/></clipPath><g clip-path="url(#_clip18)"><rect x="20.208" y="0.457" width="33.625" height="20.833" style="fill:url(#_Linear19);"/></g><clipPath id="_clip20"><path d="M7.56,9.534l0.596,-2.406l-7.144,-1.374l6.548,3.78Z"/></clipPath><g clip-path="url(#_clip20)"><rect x="0.781" y="5.415" width="7.625" height="4.469" style="fill:url(#_Linear21);"/></g><clipPath id="_clip22"><path d="M15.303,22.25l3.17,3.662l-1.753,-5.038l-1.417,1.376Zm4.419,-4.257l3.122,5.409l4.372,-2.528l-6.557,-3.773l-0.937,0.892Zm-12.897,-5.521l0.744,-2.938l-6.557,-3.773l5.813,6.711Z"/></clipPath><g clip-path="url(#_clip22)"><rect x="0.781" y="5.415" width="26.812" height="20.812" style="fill:url(#_Linear23);"/></g><clipPath id="_clip24"><path d="M14.113,13.313l4.365,2.527l-4.365,-7.565l-1.874,-0.361l1.874,5.399Z"/></clipPath><g clip-path="url(#_clip24)"><rect x="12" y="7.571" width="6.875" height="8.562" style="fill:url(#_Linear25);"/></g><clipPath id="_clip26"><path d="M18.475,25.923l8.736,5.033l-4.364,-7.558l-4.372,2.525Z"/></clipPath><g clip-path="url(#_clip26)"><rect x="18.219" y="23.196" width="9.156" height="8.062" style="fill:url(#_Linear27);"/></g><clipPath id="_clip28"><path d="M16.727,20.872l2.998,-2.877l-1.246,-2.161l-4.368,-2.522l2.616,7.56Z"/></clipPath><g clip-path="url(#_clip28)"><rect x="13.812" y="12.978" width="6.25" height="8.312" style="fill:#0d5e4c;"/></g><clipPath id="_clip29"><path d="M16.729,20.877l1.747,5.047l4.368,-2.528l-3.117,-5.406l-2.998,2.887Z"/></clipPath><g clip-path="url(#_clip29)"><rect x="16.5" y="17.759" width="6.594" height="8.438" style="fill:#264857;"/></g><clipPath id="_clip30"><path d="M14.11,8.272l13.097,2.527l-17.463,-10.086l4.366,7.559Z"/></clipPath><g clip-path="url(#_clip30)"><rect x="9.469" y="0.509" width="17.906" height="10.594" style="fill:url(#_Linear31);"/></g><clipPath id="_clip32"><path d="M1.013,5.753l0.001,0l8.732,-5.044l-8.733,5.044Z"/></clipPath><g clip-path="url(#_clip32)"><path d="M4.599,-3.587l7.629,6.367l-6.068,7.27l-7.628,-6.367l6.067,-7.27Z" style="fill:url(#_Linear33);fill-rule:nonzero;"/></g><clipPath id="_clip34"><path d="M8.159,7.128l4.08,0.785l-2.493,-7.202l-1.587,6.417Z"/></clipPath><g clip-path="url(#_clip34)"><rect x="7.844" y="0.509" width="4.625" height="7.781" style="fill:url(#_Linear35);"/></g><clipPath id="_clip36"><path d="M1.012,5.752l7.145,1.376l1.591,-6.419l-8.736,5.043Z"/></clipPath><g clip-path="url(#_clip36)"><rect x="0.844" y="0.54" width="9.094" height="6.906" style="fill:url(#_Linear37);"/></g><clipPath id="_clip38"><path d="M12.24,7.915l1.875,0.362l-4.371,-7.565l2.496,7.203Z"/></clipPath><g clip-path="url(#_clip38)"><rect x="9.469" y="0.54" width="4.938" height="8" style="fill:url(#_Linear39);"/></g><g><path d="M71.619,22.491l-2.509,0c-0.108,0 -0.217,0.083 -0.217,0.189l-0.31,1.956l-1.604,4.426l-1.607,-4.426l-0.307,-1.956c0,-0.106 -0.111,-0.189 -0.217,-0.189l-2.51,0c-0.106,0 -0.214,0.104 -0.214,0.211l0,13.574c0,0.106 0.108,0.211 0.214,0.211l1.93,0c0.107,0 0.21,-0.104 0.21,-0.211l0,-7.541c0.618,1.78 1.294,3.555 1.419,3.916c0.036,0.141 0.151,0.209 0.213,0.209l1.738,0c0.06,0 0.177,-0.068 0.212,-0.209c0.126,-0.361 0.801,-2.136 1.418,-3.916l0,7.541c0,0.106 0.103,0.211 0.211,0.211l1.93,0c0.105,0 0.214,-0.104 0.214,-0.211l0,-13.574c0,-0.106 -0.109,-0.211 -0.214,-0.211" style="fill:#fff;fill-rule:nonzero;"/><path d="M81.13,22.491l-6.612,0c-0.108,0 -0.213,0.107 -0.213,0.213l0,13.574c0,0.104 0.105,0.209 0.213,0.209l6.612,0c0.105,0 0.214,-0.104 0.214,-0.209l0,-1.925c0,-0.109 -0.109,-0.215 -0.214,-0.215l-4.466,0l0,-4.006l3.4,0c0.11,0 0.213,-0.106 0.213,-0.212l0,-1.925c0,-0.106 -0.103,-0.21 -0.213,-0.21l-3.4,0l0,-2.944l4.466,0c0.105,0 0.214,-0.106 0.214,-0.211l0,-1.927c0,-0.104 -0.109,-0.212 -0.214,-0.212" style="fill:#fff;fill-rule:nonzero;"/><path d="M89.426,34.139l-3.888,0l0,-11.436c0,-0.104 -0.107,-0.213 -0.213,-0.213l-1.935,0c-0.106,0 -0.21,0.108 -0.21,0.213l0,13.575c0,0.104 0.104,0.209 0.21,0.209l6.036,0c0.106,0 0.214,-0.104 0.214,-0.209l0,-1.925c0,-0.109 -0.108,-0.214 -0.214,-0.214" style="fill:#fff;fill-rule:nonzero;"/><path d="M117.428,22.491l-1.934,0c-0.106,0 -0.212,0.107 -0.212,0.213l0,10.801c0,0.465 -0.405,0.634 -0.829,0.634l-0.66,0c-0.428,0 -0.83,-0.169 -0.83,-0.634l0,-10.801c0,-0.105 -0.107,-0.213 -0.213,-0.213l-1.935,0c-0.106,0 -0.213,0.107 -0.213,0.213l0,11.457c0,1.29 1.044,2.326 2.34,2.326l2.36,0c1.296,0 2.337,-1.036 2.337,-2.326l0,-11.457c0,-0.105 -0.104,-0.213 -0.211,-0.213" style="fill:#fff;fill-rule:nonzero;"/><path d="M137.073,22.491l-1.947,0c-0.046,0 -0.111,0.043 -0.154,0.091l0,-0.002l-0.005,0.007l-0.032,0.051l-0.005,0.015l0,5.396l-1.831,-3.411l-0.31,-1.956c0,-0.106 -0.108,-0.189 -0.213,-0.189l-2.51,0c-0.107,0 -0.214,0.104 -0.214,0.211l0,13.574c0,0.106 0.107,0.211 0.214,0.211l1.929,0c0.105,0 0.212,-0.104 0.212,-0.211l0,-8.714c0.968,2.082 2.531,4.571 2.723,5.061l0,3.653c0,0.106 0.107,0.211 0.213,0.211l1.93,0c0.107,0 0.212,-0.104 0.212,-0.211l0,-13.576c0,-0.106 -0.105,-0.211 -0.212,-0.211" style="fill:#fff;fill-rule:nonzero;"/><path d="M146.567,24.842c0.107,0 0.214,-0.106 0.214,-0.211l0,-1.928c0,-0.104 -0.107,-0.212 -0.214,-0.212l-6.608,0c-0.107,0 -0.215,0.107 -0.215,0.212l0,13.575c0,0.104 0.108,0.21 0.215,0.21l6.608,0c0.107,0 0.214,-0.106 0.214,-0.21l0,-1.925c0,-0.109 -0.107,-0.215 -0.214,-0.215l-4.462,0l0,-4.006l3.4,0c0.106,0 0.214,-0.105 0.214,-0.212l0,-1.926c0,-0.104 -0.108,-0.209 -0.214,-0.209l-3.4,0l0,-2.944l4.462,0l0,0.001Z" style="fill:#fff;fill-rule:nonzero;"/><path d="M127.978,36.19l-1.862,-4.581l0.168,-0.12c0.699,-0.466 1.1,-1.44 1.1,-2.328l0,-3.177c0,-1.947 -1.566,-3.493 -3.512,-3.493l-3.558,0c-0.106,0 -0.212,0.107 -0.212,0.212l0,13.573c0,0.104 0.106,0.212 0.212,0.212l1.948,0c0.106,0 0.212,-0.107 0.212,-0.212l0,-3.602l1.376,0l1.503,3.684c0.043,0.103 0.148,0.13 0.212,0.13l2.222,0c0.17,0 0.255,-0.13 0.191,-0.298m-2.985,-7.05c0,0.635 -0.508,1.186 -1.121,1.186l-1.42,0l0,-5.483l1.398,0c0.635,0 1.143,0.487 1.143,1.122l0,3.175Z" style="fill:#fff;fill-rule:nonzero;"/><path d="M105.867,22.491l-2.361,0c-1.252,0 -2.338,1.079 -2.338,2.331l0,9.339c0,1.29 1.044,2.327 2.338,2.327l2.361,0c1.295,0 2.338,-1.037 2.338,-2.327l0,-9.339c0.001,-1.252 -1.082,-2.331 -2.338,-2.331m-0.021,11.014c0,0.464 -0.404,0.634 -0.831,0.634l-0.657,0c-0.427,0 -0.832,-0.17 -0.832,-0.634l0,-8.027c0,-0.489 0.174,-0.636 0.665,-0.636l0.995,0c0.489,0 0.66,0.146 0.66,0.636l0,8.027Z" style="fill:#fff;fill-rule:nonzero;"/><path d="M98.701,26.514l0,-0.72c0,-1.948 -1.574,-3.304 -3.526,-3.304l-3.571,0c-0.108,0 -0.216,0.108 -0.216,0.213l0,13.575c0,0.104 0.108,0.209 0.216,0.209l3.571,0c1.952,0 3.526,-1.545 3.526,-3.491l0,-1.697c0,-0.828 -0.341,-1.694 -1.148,-2.33c0.896,-0.591 1.148,-1.611 1.148,-2.455m-2.402,6.504c0,0.635 -0.51,1.121 -1.147,1.121l-1.403,0l0,-4.006l1.426,0c0.614,0 1.124,0.551 1.124,1.186l0,1.699Zm0,-6.313c0,0.593 -0.53,1.081 -1.147,1.081l-1.403,0l0,-2.943l1.403,0c0.637,0 1.147,0.549 1.147,1.185l0,0.677Z" style="fill:#fff;fill-rule:nonzero;"/><path d="M68.95,6.134l-4.486,0c-1.235,0 -2.34,1.038 -2.34,2.331l0,9.339c0,1.482 1.235,2.327 2.34,2.327l4.486,0c0.106,0 0.213,-0.105 0.213,-0.209l0,-1.929c0,-0.106 -0.107,-0.212 -0.213,-0.212l-3.636,0c-0.512,0 -0.828,-0.211 -0.828,-0.634l0,-8.028c0,-0.465 0.126,-0.634 0.657,-0.634l3.807,0c0.106,0 0.213,-0.105 0.213,-0.212l0,-1.926c0,-0.106 -0.107,-0.213 -0.213,-0.213" style="fill:#fff;fill-rule:nonzero;"/><path d="M110.922,6.134l-6.586,0c-0.106,0 -0.213,0.106 -0.213,0.211l0,13.573c0,0.106 0.107,0.213 0.213,0.213l1.923,0c0.105,0 0.21,-0.106 0.21,-0.213l0.005,-6.17l3.388,0c0.108,0 0.215,-0.103 0.215,-0.211l0,-1.919c0,-0.104 -0.107,-0.212 -0.215,-0.212l-3.388,0l0,-2.93l4.448,0c0.107,0 0.215,-0.107 0.215,-0.212l0,-1.92c0.001,-0.104 -0.108,-0.21 -0.215,-0.21" style="fill:#fff;fill-rule:nonzero;"/><path d="M99.851,6.134l-2.353,0c-1.252,0 -2.33,1.075 -2.33,2.32l0,9.354c0,1.288 1.037,2.322 2.33,2.322l2.353,0c1.29,0 2.329,-1.034 2.329,-2.322l0,-9.354c-0.001,-1.245 -1.084,-2.32 -2.329,-2.32m-0.027,11.02c0,0.464 -0.401,0.633 -0.823,0.633l-0.656,0c-0.427,0 -0.828,-0.169 -0.828,-0.633l0,-8.045c0,-0.486 0.17,-0.633 0.657,-0.633l0.994,0c0.49,0 0.656,0.146 0.656,0.633l0,8.045Z" style="fill:#fff;fill-rule:nonzero;"/><path d="M89.609,6.134l-2.146,0c-0.11,0 -0.214,0.085 -0.214,0.19l-0.235,1.991l-1.084,4.426l-1.107,-4.426l-0.273,-1.991c0,-0.105 -0.107,-0.19 -0.216,-0.19l-2.144,0c-0.13,0 -0.214,0.107 -0.214,0.23c0.148,1.147 0.234,2.057 0.615,3.435c0.597,2.138 1.933,6.181 2.127,6.73l0,3.393c0,0.104 0.105,0.209 0.215,0.209l1.933,0c0.105,0 0.211,-0.105 0.211,-0.209l0,-3.393c0.191,-0.55 1.575,-4.488 2.105,-6.689c0.385,-1.588 0.427,-2.03 0.618,-3.476c0.022,-0.123 -0.062,-0.23 -0.191,-0.23" style="fill:#fff;fill-rule:nonzero;"/><path d="M80.645,6.134l-6.038,0c-0.108,0 -0.214,0.105 -0.214,0.211l0,1.928c0,0.107 0.106,0.214 0.214,0.214l1.855,0l0,11.433c0,0.106 0.106,0.212 0.215,0.212l1.933,0c0.107,0 0.212,-0.105 0.212,-0.212l0,-11.434l1.823,0c0.106,0 0.213,-0.106 0.213,-0.214l0,-1.927c0,-0.106 -0.107,-0.211 -0.213,-0.211" style="fill:#fff;fill-rule:nonzero;"/><path d="M72.906,6.134l-1.935,0c-0.107,0 -0.214,0.107 -0.214,0.211l0,11.435l-0.002,0l0,2.141c0,0.107 0.108,0.211 0.216,0.211l1.935,0c0.104,0 0.211,-0.104 0.211,-0.211l0,-13.576c0,-0.104 -0.107,-0.211 -0.211,-0.211" style="fill:#fff;fill-rule:nonzero;"/></g><defs><linearGradient id="_Linear2" x1="0" y1="0" x2="1" y2="0" gradientUnits="userSpaceOnUse" gradientTransform="matrix(-36.7824,-36.7824,36.7824,-36.7824,46.7085,40.3866)"><stop offset="0%" style="stop-color:#2aabe2;stop-opacity:1"/><stop offset="100%" style="stop-color:#8cc541;stop-opacity:1"/></linearGradient><linearGradient id="_Linear4" x1="0" y1="0" x2="1" y2="0" gradientUnits="userSpaceOnUse" gradientTransform="matrix(20.375,0,0,20.375,7.125,12.1338)"><stop offset="0%" style="stop-color:#52b84e;stop-opacity:1"/><stop offset="100%" style="stop-color:#008277;stop-opacity:1"/></linearGradient><linearGradient id="_Linear6" x1="0" y1="0" x2="1" y2="0" gradientUnits="userSpaceOnUse" gradientTransform="matrix(-8.7187,4,-4,-8.7187,15.9863,30.0742)"><stop offset="0%" style="stop-color:#18a18d;stop-opacity:1"/><stop offset="9%" style="stop-color:#18a18d;stop-opacity:1"/><stop offset="100%" style="stop-color:#14455c;stop-opacity:1"/></linearGradient><linearGradient id="_Linear8" x1="0" y1="0" x2="1" y2="0" gradientUnits="userSpaceOnUse" gradientTransform="matrix(-2.5313,1.0312,-1.0312,-2.5313,6.3887,15.4434)"><stop offset="0%" style="stop-color:#338b5a;stop-opacity:1"/><stop offset="82%" style="stop-color:#1f6e41;stop-opacity:1"/><stop offset="100%" style="stop-color:#1f6e41;stop-opacity:1"/></linearGradient><linearGradient id="_Linear10" x1="0" y1="0" x2="1" y2="0" gradientUnits="userSpaceOnUse" gradientTransform="matrix(21.2014,8.7819,-8.7819,21.2014,34.1177,29.0703)"><stop offset="0%" style="stop-color:#00859f;stop-opacity:1"/><stop offset="100%" style="stop-color:#0092ce;stop-opacity:1"/></linearGradient><linearGradient id="_Linear12" x1="0" y1="0" x2="1" y2="0" gradientUnits="userSpaceOnUse" gradientTransform="matrix(15.4885,6.4155,-6.4155,15.4885,21.583,22.7383)"><stop offset="0%" style="stop-color:#46797d;stop-opacity:1"/><stop offset="76%" style="stop-color:#00849e;stop-opacity:1"/><stop offset="100%" style="stop-color:#00849e;stop-opacity:1"/></linearGradient><linearGradient id="_Linear14" x1="0" y1="0" x2="1" y2="0" gradientUnits="userSpaceOnUse" gradientTransform="matrix(14.3438,0,0,14.3438,6.5,15.8994)"><stop offset="0%" style="stop-color:#008f52;stop-opacity:1"/><stop offset="100%" style="stop-color:#007554;stop-opacity:1"/></linearGradient><linearGradient id="_Linear17" x1="0" y1="0" x2="1" y2="0" gradientUnits="userSpaceOnUse" gradientTransform="matrix(12.6519,-5.2406,5.2406,12.6519,2.189,25.1445)"><stop offset="0%" style="stop-color:#2f3433;stop-opacity:1"/><stop offset="21%" style="stop-color:#2f3433;stop-opacity:1"/><stop offset="100%" style="stop-color:#264e44;stop-opacity:1"/></linearGradient><linearGradient id="_Linear19" x1="0" y1="0" x2="1" y2="0" gradientUnits="userSpaceOnUse" gradientTransform="matrix(36.0665,14.9393,-14.9393,36.0665,18.9873,3.4033)"><stop offset="0%" style="stop-color:#00814a;stop-opacity:1"/><stop offset="100%" style="stop-color:#00a1c3;stop-opacity:1"/></linearGradient><linearGradient id="_Linear21" x1="0" y1="0" x2="1" y2="0" gradientUnits="userSpaceOnUse" gradientTransform="matrix(7.625,0,0,7.625,0.7812,7.6494)"><stop offset="0%" style="stop-color:#1f543e;stop-opacity:1"/><stop offset="100%" style="stop-color:#264738;stop-opacity:1"/></linearGradient><linearGradient id="_Linear23" x1="0" y1="0" x2="1" y2="0" gradientUnits="userSpaceOnUse" gradientTransform="matrix(30.2445,12.5277,-12.5277,30.2445,-0.9351,9.5566)"><stop offset="0%" style="stop-color:#283634;stop-opacity:1"/><stop offset="100%" style="stop-color:#115a6a;stop-opacity:1"/></linearGradient><linearGradient id="_Linear25" x1="0" y1="0" x2="1" y2="0" gradientUnits="userSpaceOnUse" gradientTransform="matrix(6.875,0,0,6.875,12,11.8525)"><stop offset="0%" style="stop-color:#008f52;stop-opacity:1"/><stop offset="100%" style="stop-color:#007554;stop-opacity:1"/></linearGradient><linearGradient id="_Linear27" x1="0" y1="0" x2="1" y2="0" gradientUnits="userSpaceOnUse" gradientTransform="matrix(9.1562,0,0,9.1562,18.2188,27.2275)"><stop offset="0%" style="stop-color:#00656d;stop-opacity:1"/><stop offset="100%" style="stop-color:#115a6a;stop-opacity:1"/></linearGradient><linearGradient id="_Linear31" x1="0" y1="0" x2="1" y2="0" gradientUnits="userSpaceOnUse" gradientTransform="matrix(19.0298,7.8823,-7.8823,19.0298,8.9067,1.8643)"><stop offset="0%" style="stop-color:#00814a;stop-opacity:1"/><stop offset="82%" style="stop-color:#244750;stop-opacity:1"/><stop offset="100%" style="stop-color:#244750;stop-opacity:1"/></linearGradient><linearGradient id="_Linear33" x1="0" y1="0" x2="1" y2="0" gradientUnits="userSpaceOnUse" gradientTransform="matrix(18.1597,15.158,-15.158,18.1597,2.20808,0.606452)"><stop offset="0%" style="stop-color:#5acaf4;stop-opacity:1"/><stop offset="52%" style="stop-color:#2980b5;stop-opacity:1"/><stop offset="76%" style="stop-color:#01639d;stop-opacity:1"/><stop offset="99%" style="stop-color:#0e4c85;stop-opacity:1"/><stop offset="100%" style="stop-color:#0e4c85;stop-opacity:1"/></linearGradient><linearGradient id="_Linear35" x1="0" y1="0" x2="1" y2="0" gradientUnits="userSpaceOnUse" gradientTransform="matrix(6.6991,2.7748,-2.7748,6.6991,6.8066,3.0127)"><stop offset="0%" style="stop-color:#00814a;stop-opacity:1"/><stop offset="100%" style="stop-color:#1e5438;stop-opacity:1"/></linearGradient><linearGradient id="_Linear37" x1="0" y1="0" x2="1" y2="0" gradientUnits="userSpaceOnUse" gradientTransform="matrix(-9.0937,1.11366e-15,-1.11366e-15,-9.0937,9.9375,3.9932)"><stop offset="0%" style="stop-color:#1f543e;stop-opacity:1"/><stop offset="100%" style="stop-color:#264738;stop-opacity:1"/></linearGradient><linearGradient id="_Linear39" x1="0" y1="0" x2="1" y2="0" gradientUnits="userSpaceOnUse" gradientTransform="matrix(7.0428,2.9172,-2.9172,7.0428,8.415,3.0811)"><stop offset="0%" style="stop-color:#00814a;stop-opacity:1"/><stop offset="100%" style="stop-color:#1d5438;stop-opacity:1"/></linearGradient></defs></svg>