<?xml version="1.0" encoding="UTF-8" standalone="no"?>
<!-- Created with Inkscape (http://www.inkscape.org/) -->
<svg
   xmlns:dc="http://purl.org/dc/elements/1.1/"
   xmlns:cc="http://creativecommons.org/ns#"
   xmlns:rdf="http://www.w3.org/1999/02/22-rdf-syntax-ns#"
   xmlns:svg="http://www.w3.org/2000/svg"
   xmlns="http://www.w3.org/2000/svg"
   xmlns:sodipodi="http://sodipodi.sourceforge.net/DTD/sodipodi-0.dtd"
   xmlns:inkscape="http://www.inkscape.org/namespaces/inkscape"
   width="277.18719"
   height="176.63034"
   id="svg2"
   sodipodi:version="0.32"
   inkscape:version="0.46"
   version="1.0"
   sodipodi:docname="1956 NBC logo.svg"
   inkscape:output_extension="org.inkscape.output.svg.inkscape">
  <defs
     id="defs4">
    <inkscape:perspective
       sodipodi:type="inkscape:persp3d"
       inkscape:vp_x="0 : 526.18109 : 1"
       inkscape:vp_y="0 : 1000 : 0"
       inkscape:vp_z="744.09448 : 526.18109 : 1"
       inkscape:persp3d-origin="372.04724 : 350.78739 : 1"
       id="perspective10" />
    <inkscape:perspective
       id="perspective2390"
       inkscape:persp3d-origin="372.04724 : 350.78739 : 1"
       inkscape:vp_z="744.09448 : 526.18109 : 1"
       inkscape:vp_y="0 : 1000 : 0"
       inkscape:vp_x="0 : 526.18109 : 1"
       sodipodi:type="inkscape:persp3d" />
  </defs>
  <sodipodi:namedview
     id="base"
     pagecolor="#ffffff"
     bordercolor="#666666"
     borderopacity="1.0"
     gridtolerance="10000"
     guidetolerance="10"
     objecttolerance="10"
     inkscape:pageopacity="0.0"
     inkscape:pageshadow="2"
     inkscape:zoom="9.4983305"
     inkscape:cx="221.60196"
     inkscape:cy="34.969708"
     inkscape:document-units="px"
     inkscape:current-layer="layer1"
     showgrid="false"
     showguides="true"
     inkscape:guide-bbox="true"
     inkscape:window-width="1024"
     inkscape:window-height="721"
     inkscape:window-x="-4"
     inkscape:window-y="-4" />
  <metadata
     id="metadata7">
    <rdf:RDF>
      <cc:Work
         rdf:about="">
        <dc:format>image/svg+xml</dc:format>
        <dc:type
           rdf:resource="http://purl.org/dc/dcmitype/StillImage" />
      </cc:Work>
    </rdf:RDF>
  </metadata>
  <g
     inkscape:label="Layer 1"
     inkscape:groupmode="layer"
     id="layer1"
     transform="translate(-236.34915,-444.74045)">
    <path
       style="fill:#e9b400;fill-opacity:1;fill-rule:evenodd;stroke:#000000;stroke-width:0;stroke-linecap:butt;stroke-linejoin:miter;stroke-miterlimit:4;stroke-dasharray:none;stroke-opacity:1"
       d="M 284.11596,528.18905 C 299.07512,533.62997 313.28585,520.15701 304.63459,504.35294 L 372.55304,584.39875 L 386.21615,591.02239 L 362.451,579.78196 L 284.11596,528.18905 z"
       id="path3174"
       sodipodi:nodetypes="cccccc" />
    <path
       style="fill:#3683bd;fill-opacity:1;fill-rule:evenodd;stroke:#000000;stroke-width:0;stroke-linecap:butt;stroke-linejoin:miter;stroke-miterlimit:4;stroke-dasharray:none;stroke-opacity:1"
       d="M 419.72497,489.30332 C 409.91722,501.03736 392.91733,493.84059 390.77074,481.26125 L 372.99551,572.44766 L 380.52507,572.60963 C 393.5917,542.18309 410.46481,521.63311 419.72497,489.30332 z"
       id="path3210"
       sodipodi:nodetypes="ccccc" />
    <path
       style="fill:#e9b400;fill-opacity:1;fill-rule:evenodd;stroke:#000000;stroke-width:0;stroke-linecap:butt;stroke-linejoin:miter;stroke-miterlimit:4;stroke-dasharray:none;stroke-opacity:1"
       d="M 466.47583,529.2643 C 451.51667,534.70524 437.30594,521.23227 445.95719,505.42819 L 378.03874,585.47402 L 364.37563,592.09765 L 388.14078,580.85722 L 466.47583,529.2643 z"
       id="path3208"
       sodipodi:nodetypes="cccccc" />
    <path
       style="fill:#674a8e;fill-opacity:1;fill-rule:evenodd;stroke:#000000;stroke-width:0;stroke-linecap:butt;stroke-linejoin:miter;stroke-miterlimit:4;stroke-dasharray:none;stroke-opacity:1"
       d="M 360.14099,479.87507 C 366.07106,494.64716 385.41998,494.1134 390.89266,481.05959 L 375.95264,578.74768 L 370.13966,579.03741 C 366.90558,546.0821 359.17087,513.4909 360.14099,479.87507 z"
       id="path3180"
       sodipodi:nodetypes="ccccc" />
    <path
       style="fill:#3683bd;fill-opacity:1;fill-rule:evenodd;stroke:#000000;stroke-width:0;stroke-linecap:butt;stroke-linejoin:miter;stroke-miterlimit:4;stroke-dasharray:none;stroke-opacity:1"
       d="M 330.86682,488.22806 C 340.9937,500.50919 358.89919,493.94565 360.1597,479.84731 L 371.61893,578.36161 L 370.06671,579.5077 C 357.00008,549.08114 340.12696,520.55784 330.86682,488.22806 z"
       id="path3178"
       sodipodi:nodetypes="ccccc" />
    <path
       style="fill:#b7023d;fill-opacity:1;fill-rule:evenodd;stroke:#000000;stroke-width:0;stroke-linecap:butt;stroke-linejoin:miter;stroke-miterlimit:4;stroke-dasharray:none;stroke-opacity:1"
       d="M 267.60196,590.54279 C 279.41817,588.02969 290.96437,571.70531 274.08069,558.43586 L 384.42856,590.54279 L 267.60196,590.54279 z"
       id="path3170"
       sodipodi:nodetypes="cccc" />
    <path
       style="fill:#3683bd;fill-opacity:1;fill-rule:evenodd;stroke:#000000;stroke-width:0;stroke-linecap:butt;stroke-linejoin:miter;stroke-miterlimit:4;stroke-dasharray:none;stroke-opacity:1"
       d="M 482.98982,591.61805 C 471.17361,589.10495 459.62742,572.78057 476.51109,559.51112 L 369.84808,590.35467 L 482.98982,591.61805 z"
       id="path3212"
       sodipodi:nodetypes="cccc" />
    <path
       style="fill:#e46b12;fill-opacity:1;fill-rule:evenodd;stroke:#000000;stroke-width:0;stroke-linecap:butt;stroke-linejoin:miter;stroke-miterlimit:4;stroke-dasharray:none;stroke-opacity:1"
       d="M 274.01892,558.46115 C 287.69655,556.73423 298.14029,542.07453 284.06724,528.09595 L 367.72774,582.62509 L 386.21615,591.02239 L 274.01892,558.46115 z"
       id="path3172"
       sodipodi:nodetypes="ccccc" />
    <path
       style="fill:#e46b12;fill-opacity:1;fill-rule:evenodd;stroke:#000000;stroke-width:0;stroke-linecap:butt;stroke-linejoin:miter;stroke-miterlimit:4;stroke-dasharray:none;stroke-opacity:1"
       d="M 476.57287,559.53642 C 462.89523,557.80949 452.4515,543.1498 466.52453,529.1712 L 382.86404,583.70035 L 369.1133,590.83427 L 476.57287,559.53642 z"
       id="path3214"
       sodipodi:nodetypes="ccccc" />
    <path
       style="fill:#00a23d;fill-opacity:1;fill-rule:evenodd;stroke:#000000;stroke-width:0;stroke-linecap:butt;stroke-linejoin:miter;stroke-miterlimit:4;stroke-dasharray:none;stroke-opacity:1"
       d="M 304.64522,504.37635 C 317.70199,513.48132 333.60378,504.26423 330.86533,488.20457 L 376.25234,592.68303 L 368.62519,580.25879 L 304.64522,504.37635 z"
       id="path3176"
       sodipodi:nodetypes="ccccc" />
    <path
       style="fill:#00a23d;fill-opacity:1;fill-rule:evenodd;stroke:#000000;stroke-width:0;stroke-linecap:butt;stroke-linejoin:miter;stroke-miterlimit:4;stroke-dasharray:none;stroke-opacity:1"
       d="M 445.94657,505.45161 C 432.69336,515.14588 416.4958,506.81612 419.72645,489.27984 L 380.33422,572.04059 L 374.33944,593.75829 L 381.96659,581.33406 L 445.94657,505.45161 z"
       id="path3216"
       sodipodi:nodetypes="cccccc" />
    <path
       style="fill:#ffffff;fill-rule:evenodd;stroke:#000000;stroke-width:1.09081995;stroke-linecap:butt;stroke-linejoin:miter;stroke-miterlimit:4;stroke-dasharray:none;stroke-opacity:1"
       d="M 370.67263,509.46102 C 373.37667,508.14444 376.08073,507.4655 378.78478,506.7641 L 378.82758,560.20297 C 380.08843,565.30458 389.67076,571.31102 395.39235,579.59769 C 401.45353,588.37619 404.29826,597.89227 396.8525,605.4655 C 396.95762,599.06424 390.40554,593.46045 386.55089,591.95951 L 386.74532,597.54777 C 386.63637,599.71539 385.84765,602.35646 384.75068,604.59698 C 383.25798,607.64581 382.14343,609.2061 380.44538,610.6435 C 381.15336,605.31835 385.85885,596.75325 379.89511,593.31868 C 381.61085,597.87508 377.52784,601.80794 374.17844,605.22827 C 375.14865,601.38405 375.42887,599.22212 376.10926,595.08807 C 365.76497,592.18043 357.66153,581.52959 362.99213,562.01519 C 366.48316,545.90176 373.00606,524.33494 374.7501,510.82018 C 373.51814,510.62151 372.21847,510.28743 370.67263,509.46102 z"
       id="path2396"
       sodipodi:nodetypes="cccscccsccccccc" />
    <path
       style="fill:#ffffff;fill-rule:evenodd;stroke:#000000;stroke-width:1.09081995;stroke-linecap:butt;stroke-linejoin:miter;stroke-miterlimit:4;stroke-dasharray:none;stroke-opacity:1"
       d="M 375.10946,504.84178 L 371.73106,494.33937 L 378.19407,494.55969 L 375.10946,504.84178 z"
       id="path3168"
       sodipodi:nodetypes="cccc" />
    <path
       style="fill:#b7023d;fill-opacity:1;fill-rule:nonzero;stroke:#000000;stroke-width:0;marker:none;marker-start:none;marker-mid:none;marker-end:none;stroke-miterlimit:4;stroke-opacity:1;visibility:visible;display:inline;overflow:visible;enable-background:accumulate"
       d="M 503.5324,572.69824 C 501.97855,573.24942 497.63983,576.50446 497.2273,577.5543 C 497.22036,577.57195 497.22722,577.54568 497.2231,577.56237 C 495.80975,583.2841 490.63927,587.53064 484.48296,587.53064 C 477.23955,587.53064 471.36084,581.65194 471.36084,574.40853 C 471.36084,567.16512 477.23955,561.28641 484.48296,561.28641 C 489.6739,561.28641 494.16396,564.30558 496.29176,568.68254 C 496.30146,568.70252 496.31183,568.72228 496.32285,568.74184 C 497.26653,570.41877 501.1369,572.15855 503.5324,572.69824 z"
       id="path3220"
       sodipodi:nodetypes="csssssssc" />
    <path
       style="fill:#674a8e;fill-opacity:1;fill-rule:nonzero;stroke:#000000;stroke-width:0;marker:none;marker-start:none;marker-mid:none;marker-end:none;stroke-miterlimit:4;stroke-opacity:1;visibility:visible;display:inline;overflow:visible;enable-background:accumulate"
       d="M 493.60811,534.38656 C 492.34759,535.44927 489.43175,540.02284 489.41502,541.15071 C 489.41475,541.16968 489.41191,541.14266 489.41393,541.15975 C 490.10438,547.01287 486.75887,552.80724 480.99631,554.97355 C 474.21616,557.5224 466.6448,554.08829 464.09595,547.30814 C 461.5471,540.52799 464.98121,532.95664 471.76135,530.40778 C 476.6203,528.58119 481.88559,529.82728 485.41748,533.17556 C 485.43359,533.19084 485.45026,533.2057 485.46745,533.22014 C 486.94088,534.45775 491.1759,534.72434 493.60811,534.38656 z"
       id="path3223"
       sodipodi:nodetypes="csssssssc" />
    <path
       style="fill:#b7023d;fill-opacity:1;fill-rule:nonzero;stroke:#000000;stroke-width:0;marker:none;marker-start:none;marker-mid:none;marker-end:none;stroke-miterlimit:4;stroke-opacity:1;visibility:visible;display:inline;overflow:visible;enable-background:accumulate"
       d="M 474.25708,501.33393 C 473.27679,502.65956 471.49886,507.78388 471.74368,508.88498 C 471.74781,508.90349 471.73879,508.87788 471.74471,508.89403 C 473.77131,514.42834 471.85796,520.83977 466.75339,524.28118 C 460.74742,528.33029 452.58676,526.74211 448.53765,520.73613 C 444.48854,514.73015 446.07673,506.56952 452.08269,502.52039 C 456.38683,499.61864 461.79757,499.61206 466.0086,502.05183 C 466.02781,502.06296 466.04746,502.07355 466.06753,502.08362 C 467.78741,502.94653 471.96912,502.22555 474.25708,501.33393 z"
       id="path3225"
       sodipodi:nodetypes="csssssssc" />
    <path
       style="fill:#3683bd;fill-opacity:1;fill-rule:nonzero;stroke:#000000;stroke-width:0;marker:none;marker-start:none;marker-mid:none;marker-end:none;stroke-miterlimit:4;stroke-opacity:1;visibility:visible;display:inline;overflow:visible;enable-background:accumulate"
       d="M 446.80493,477.84272 C 446.19561,479.37472 445.785,484.78314 446.30284,485.78524 C 446.31156,485.80208 446.29631,485.77962 446.30615,485.79371 C 449.67865,490.62715 449.46575,497.3146 445.40905,501.94528 C 440.63601,507.39367 432.34034,507.94179 426.89194,503.16874 C 421.44354,498.39569 420.89544,490.10003 425.66846,484.65163 C 429.08903,480.74709 434.31875,479.35919 439.01315,480.6429 C 439.03457,480.64876 439.05628,480.65398 439.07825,480.6586 C 440.96146,481.05378 444.82047,479.28898 446.80493,477.84272 z"
       id="path3227"
       sodipodi:nodetypes="csssssssc" />
    <path
       style="fill:#00a23d;fill-opacity:1;fill-rule:nonzero;stroke:#000000;stroke-width:0;marker:none;marker-start:none;marker-mid:none;marker-end:none;stroke-miterlimit:4;stroke-opacity:1;visibility:visible;display:inline;overflow:visible;enable-background:accumulate"
       d="M 412.93563,459.6419 C 412.87343,461.28945 414.29418,466.52407 415.11718,467.29543 C 415.13102,467.30839 415.10913,467.29231 415.12313,467.30232 C 419.91721,470.73052 421.95182,477.1045 419.67623,482.82479 C 416.99881,489.55519 409.36347,492.84459 402.63305,490.16715 C 395.90264,487.48974 392.61326,479.8544 395.29068,473.12398 C 397.20944,468.3007 401.67446,465.24461 406.52795,464.88541 C 406.5501,464.88377 406.5723,464.88144 406.59455,464.87843 C 408.50152,464.62144 411.54871,461.66828 412.93563,459.6419 z"
       id="path3229"
       sodipodi:nodetypes="csssssssc" />
    <path
       style="fill:#e9b400;fill-opacity:1;fill-rule:nonzero;stroke:#000000;stroke-width:0;marker:none;marker-start:none;marker-mid:none;marker-end:none;stroke-miterlimit:4;stroke-opacity:1;visibility:visible;display:inline;overflow:visible;enable-background:accumulate"
       d="M 375.47195,454.84825 C 375.89917,456.44064 378.80279,461.02198 379.81693,461.51581 C 379.83398,461.52411 379.80833,461.51522 379.82465,461.52063 C 385.41748,463.37971 389.24411,468.86824 388.7598,475.00547 C 388.18998,482.22643 381.86702,487.62446 374.64604,487.05463 C 367.4251,486.48481 362.02706,480.16185 362.59688,472.94089 C 363.00525,467.76605 366.36829,463.5274 370.89908,461.75054 C 370.91976,461.74243 370.94028,461.73365 370.96064,461.7242 C 372.70662,460.91536 374.74548,457.19388 375.47195,454.84825 z"
       id="path3231"
       sodipodi:nodetypes="csssssssc" />
    <path
       style="fill:#e46b12;fill-opacity:1;fill-rule:nonzero;stroke:#000000;stroke-width:0;marker:none;marker-start:none;marker-mid:none;marker-end:none;stroke-miterlimit:4;stroke-opacity:1;visibility:visible;display:inline;overflow:visible;enable-background:accumulate"
       d="M 338.14955,460.10963 C 339.0276,461.50508 343.15366,465.02577 344.26836,465.19841 C 344.2871,465.2013 344.25996,465.20037 344.27716,465.20073 C 350.16951,465.3269 355.44517,469.44206 356.7932,475.44896 C 358.37927,482.5166 353.93046,489.53989 346.86281,491.12596 C 339.79521,492.71202 332.7719,488.26321 331.18584,481.19558 C 330.0492,476.13064 332.01192,471.08843 335.81675,468.05387 C 335.83413,468.04002 335.85114,468.02557 335.86782,468.01054 C 337.29741,466.72257 338.14749,462.56518 338.14955,460.10963 z"
       id="path3233"
       sodipodi:nodetypes="csssssssc" />
    <path
       style="fill:#674a8e;fill-opacity:1;fill-rule:nonzero;stroke:#000000;stroke-width:0;marker:none;marker-start:none;marker-mid:none;marker-end:none;stroke-miterlimit:4;stroke-opacity:1;visibility:visible;display:inline;overflow:visible;enable-background:accumulate"
       d="M 304.97309,474.56901 C 306.10552,475.76729 310.83694,478.4193 311.96394,478.37209 C 311.98288,478.37129 311.9561,478.37565 311.97303,478.37267 C 317.77764,477.3517 323.75224,480.36351 326.24159,485.99407 C 329.17051,492.61891 326.17092,500.37268 319.54607,503.3016 C 312.92125,506.23052 305.16747,503.23092 302.23854,496.6061 C 300.13958,491.85847 301.08532,486.53102 304.22812,482.81509 C 304.24247,482.79814 304.25636,482.78065 304.26979,482.76267 C 305.42192,481.2215 305.44813,476.97817 304.97309,474.56901 z"
       id="path3235"
       sodipodi:nodetypes="csssssssc" />
    <path
       style="fill:#b7023d;fill-opacity:1;fill-rule:nonzero;stroke:#000000;stroke-width:0;marker:none;marker-start:none;marker-mid:none;marker-end:none;stroke-miterlimit:4;stroke-opacity:1;visibility:visible;display:inline;overflow:visible;enable-background:accumulate"
       d="M 275.74962,500.78216 C 277.25503,501.45444 282.6418,502.08882 283.66449,501.61295 C 283.68168,501.60495 283.65861,501.61925 283.67311,501.61001 C 288.64215,498.44069 295.31501,498.93053 299.77361,503.17562 C 305.01955,508.17035 305.22342,516.4816 300.22869,521.72754 C 295.23398,526.97346 286.92271,527.17733 281.67678,522.18262 C 277.91735,518.60319 276.74736,513.32046 278.22451,508.68329 C 278.23125,508.66213 278.23736,508.64065 278.24287,508.6189 C 278.71576,506.75368 277.11239,502.82486 275.74962,500.78216 z"
       id="path3237"
       sodipodi:nodetypes="csssssssc" />
    <path
       style="fill:#3683bd;fill-opacity:1;fill-rule:nonzero;stroke:#000000;stroke-width:0;marker:none;marker-start:none;marker-mid:none;marker-end:none;stroke-miterlimit:4;stroke-opacity:1;visibility:visible;display:inline;overflow:visible;enable-background:accumulate"
       d="M 256.30949,533.1128 C 257.93086,533.41179 263.31558,532.76026 264.19751,532.057 C 264.21233,532.04518 264.19327,532.06452 264.20518,532.05211 C 268.28849,527.80211 274.88913,526.70733 280.22177,529.78353 C 286.49608,533.40294 288.65077,541.43263 285.03134,547.70694 C 281.41196,553.98123 273.38226,556.13592 267.10796,552.51652 C 262.61154,549.92269 260.23084,545.06386 260.57483,540.20926 C 260.5764,540.18711 260.57729,540.1648 260.57752,540.14237 C 260.59803,538.21825 258.11483,534.77728 256.30949,533.1128 z"
       id="path3239"
       sodipodi:nodetypes="csssssssc" />
    <path
       style="fill:#00a23d;fill-opacity:1;fill-rule:nonzero;stroke:#000000;stroke-width:0;marker:none;marker-start:none;marker-mid:none;marker-end:none;stroke-miterlimit:4;stroke-opacity:1;visibility:visible;display:inline;overflow:visible;enable-background:accumulate"
       d="M 246.43301,570.28027 C 248.07811,570.17125 253.13711,568.21518 253.81895,567.3166 C 253.8304,567.3015 253.81669,567.32492 253.82519,567.30997 C 256.73762,562.18614 262.86616,559.50136 268.79163,561.17131 C 275.76346,563.13615 279.82711,570.3891 277.86227,577.36095 C 275.89743,584.33276 268.64446,588.39641 261.67264,586.43157 C 256.67634,585.02347 253.1736,580.89954 252.31289,576.10949 C 252.30897,576.08764 252.30434,576.06579 252.29905,576.04398 C 251.84562,574.17395 248.59231,571.44953 246.43301,570.28027 z"
       id="path3241"
       sodipodi:nodetypes="csssssssc" />
  </g>
</svg>
