<?xml version="1.0" encoding="UTF-8" standalone="no"?>
<!-- Created with Inkscape (http://www.inkscape.org/) -->

<svg
   xmlns:dc="http://purl.org/dc/elements/1.1/"
   xmlns:cc="http://creativecommons.org/ns#"
   xmlns:rdf="http://www.w3.org/1999/02/22-rdf-syntax-ns#"
   xmlns:svg="http://www.w3.org/2000/svg"
   xmlns="http://www.w3.org/2000/svg"
   xmlns:sodipodi="http://sodipodi.sourceforge.net/DTD/sodipodi-0.dtd"
   xmlns:inkscape="http://www.inkscape.org/namespaces/inkscape"
   width="305.625"
   height="317.90625"
   id="svg2467"
   sodipodi:version="0.32"
   inkscape:version="0.48.1 "
   version="1.0"
   sodipodi:docname="AJAX.svg"
   inkscape:output_extension="org.inkscape.output.svg.inkscape">
  <defs
     id="defs2469">
    <inkscape:perspective
       sodipodi:type="inkscape:persp3d"
       inkscape:vp_x="0 : 526.18109 : 1"
       inkscape:vp_y="0 : 1000 : 0"
       inkscape:vp_z="744.09448 : 526.18109 : 1"
       inkscape:persp3d-origin="372.04724 : 350.78739 : 1"
       id="perspective2475" />
    <inkscape:perspective
       id="perspective2484"
       inkscape:persp3d-origin="372.04724 : 350.78739 : 1"
       inkscape:vp_z="744.09448 : 526.18109 : 1"
       inkscape:vp_y="0 : 1000 : 0"
       inkscape:vp_x="0 : 526.18109 : 1"
       sodipodi:type="inkscape:persp3d" />
    <inkscape:perspective
       id="perspective2412"
       inkscape:persp3d-origin="372.04724 : 350.78739 : 1"
       inkscape:vp_z="744.09448 : 526.18109 : 1"
       inkscape:vp_y="0 : 1000 : 0"
       inkscape:vp_x="0 : 526.18109 : 1"
       sodipodi:type="inkscape:persp3d" />
  </defs>
  <sodipodi:namedview
     id="base"
     pagecolor="#ffffff"
     bordercolor="#666666"
     borderopacity="1.0"
     gridtolerance="10000"
     guidetolerance="10"
     objecttolerance="10"
     inkscape:pageopacity="0.0"
     inkscape:pageshadow="2"
     inkscape:zoom="1.1656992"
     inkscape:cx="64.71382"
     inkscape:cy="82.341984"
     inkscape:document-units="px"
     inkscape:current-layer="layer1"
     showgrid="false"
     inkscape:window-width="1280"
     inkscape:window-height="1004"
     inkscape:window-x="-8"
     inkscape:window-y="-8"
     fit-margin-top="0"
     fit-margin-left="0"
     fit-margin-right="0"
     fit-margin-bottom="0"
     inkscape:window-maximized="1" />
  <metadata
     id="metadata2472">
    <rdf:RDF>
      <cc:Work
         rdf:about="">
        <dc:format>image/svg+xml</dc:format>
        <dc:type
           rdf:resource="http://purl.org/dc/dcmitype/StillImage" />
      </cc:Work>
    </rdf:RDF>
  </metadata>
  <g
     inkscape:label="Layer 1"
     inkscape:groupmode="layer"
     id="layer1"
     transform="translate(-222.34375,-375.25)">
    <path
       style="fill:#ffffff;fill-opacity:1;fill-rule:nonzero;stroke:#0174a8;stroke-width:5.11517811;stroke-miterlimit:4;stroke-opacity:1;stroke-dasharray:none;marker:none;visibility:visible;display:inline;overflow:visible;enable-background:accumulate"
       d="m 525.40757,686.85743 -150.03581,-153.85932 0,-149.46332 150.03581,0 0,303.32264 z"
       id="path2493"
       sodipodi:nodetypes="ccccc"
       inkscape:connector-curvature="0" />
    <path
       style="fill:#ffffff;fill-opacity:1;fill-rule:nonzero;stroke:#0174a8;stroke-width:5.11517811;stroke-miterlimit:4;stroke-opacity:1;stroke-dasharray:none;marker:none;visibility:visible;display:inline;overflow:visible;enable-background:accumulate"
       d="m 224.88584,381.54599 150.03581,153.85932 0,149.46332 -150.03581,0 0,-303.32264 z"
       id="path3188"
       sodipodi:nodetypes="ccccc"
       inkscape:connector-curvature="0" />
    <path
       style="fill:#ffffff;fill-opacity:1;fill-rule:evenodd;stroke:#0073a6;stroke-width:4.69999981;stroke-linecap:butt;stroke-linejoin:miter;stroke-miterlimit:4;stroke-opacity:1;stroke-dasharray:none"
       d="m 41.764816,247.93716 108.721104,0 18.56215,7.29227 18.56214,-7.29227 106.89803,0.66294 c 29.03355,0 34.87795,-33.84699 13.09295,-45.74242 12.30595,-14.63755 4.80695,-37.2259 -14.08734,-40.10748 6.45189,-15.19607 -3.81105,-37.37655 -25.68868,-33.31242 1.61914,-17.9715 -12.60825,-35.841144 -35.13548,-25.35721 -2.24015,-15.219091 -20.18802,-29.862253 -40.43895,-13.921602 -9.72303,-17.678253 -32.64948,-16.020871 -42.42775,0 -17.3826,-16.287238 -39.94544,-3.246392 -41.10188,13.258672 -24.538694,-11.153256 -37.612129,12.1389 -34.969749,24.52855 -6.617258,-3.05918 -36.326681,4.58069 -25.854409,34.14107 -13.519296,0.71915 -31.33729,21.86524 -14.750273,40.10748 -17.171589,6.88461 -20.982082,42.16059 8.618137,45.74242 z"
       id="path3190"
       transform="translate(205.29839,366.68582)"
       sodipodi:nodetypes="cccccccccccccccc"
       inkscape:connector-curvature="0" />
    <path
       style="fill:#0073a6;fill-opacity:1;fill-rule:evenodd;stroke:#000000;stroke-width:0;stroke-linecap:butt;stroke-linejoin:miter;stroke-miterlimit:4;stroke-opacity:1;stroke-dasharray:none"
       d="m 393.57694,468.25866 -11.80996,92.37675 -4.28689,42.47721 -4.41836,-26.04111 -14.94803,-107.00416 c -0.74798,-13.87531 9.10103,-20.58681 18.44467,-20.12763 9.22971,0.45358 18.27447,5.29592 17.01857,18.31894 z"
       id="path3218"
       sodipodi:nodetypes="cccccsc"
       inkscape:connector-curvature="0" />
    <path
       style="fill:#ffffff;fill-rule:evenodd;stroke:#000000;stroke-width:0;stroke-linecap:butt;stroke-linejoin:miter;stroke-miterlimit:4;stroke-opacity:1;stroke-dasharray:none"
       d="m 169.84672,121.87799 c 0.32386,1.64943 2.00487,1.49462 2.15323,-0.17226 1.75552,-5.33684 2.67884,-11.29782 3.53129,-17.31196 0.58605,-6.685265 -10.28027,-5.330134 -9.56033,0 1.17823,5.82807 2.26051,11.65615 3.87581,17.48422 z"
       id="path3194"
       transform="translate(205.29839,366.68582)"
       sodipodi:nodetypes="ccccc"
       inkscape:connector-curvature="0" />
    <path
       style="fill:#fea900;fill-opacity:1;fill-rule:evenodd;stroke:#000000;stroke-width:0;stroke-linecap:butt;stroke-linejoin:miter;stroke-miterlimit:4;stroke-opacity:1;stroke-dasharray:none"
       d="m 45.608576,207.19498 132.967324,35.43871 -136.14815,0 c -11.051703,-0.0864 -18.384679,-11.79985 -17.399268,-20.95659 1.059496,-9.84516 11.194621,-17.09511 20.580094,-14.48212 z"
       id="path3196"
       transform="translate(205.29839,366.68582)"
       sodipodi:nodetypes="cccsc"
       inkscape:connector-curvature="0" />
    <path
       style="fill:#ea5d0e;fill-opacity:1;fill-rule:evenodd;stroke:#000000;stroke-width:0;stroke-linecap:butt;stroke-linejoin:miter;stroke-miterlimit:4;stroke-opacity:1;stroke-dasharray:none"
       d="m 263.88564,536.867 c 30.44586,17.079 81.2781,47.55499 117.67704,71.33249 L 250.88656,569.98864 c -12.5854,-4.54434 -14.79629,-16.24062 -11.39239,-24.2592 3.97129,-9.35519 15.4184,-14.45525 24.39147,-8.86244 z"
       id="path3198"
       sodipodi:nodetypes="cccsc"
       inkscape:connector-curvature="0" />
    <path
       style="fill:#9f002c;fill-opacity:1;fill-rule:evenodd;stroke:#000000;stroke-width:0;stroke-linecap:butt;stroke-linejoin:miter;stroke-miterlimit:4;stroke-opacity:1;stroke-dasharray:none"
       d="m 286.08578,504.98806 c 35.45562,34.70453 63.32753,66.37557 94.9913,99.56336 l -116.18144,-70.9802 c -10.52774,-7.87791 -9.31588,-20.83521 -3.14456,-27.70963 6.32929,-7.05038 17.83925,-7.83423 24.3347,-0.87353 z"
       id="path3200"
       sodipodi:nodetypes="cccsc"
       inkscape:connector-curvature="0" />
    <path
       style="fill:#893a70;fill-opacity:1;fill-rule:evenodd;stroke:#000000;stroke-width:0;stroke-linecap:butt;stroke-linejoin:miter;stroke-miterlimit:4;stroke-opacity:1;stroke-dasharray:none"
       d="m 317.87955,481.96802 63.91693,121.864 -92.15612,-100.21759 c -7.7173,-10.29134 -3.89377,-22.19575 3.8776,-27.24885 8.08138,-5.25467 20.35667,-3.28846 24.36159,5.60244 z"
       id="path3202"
       sodipodi:nodetypes="cccsc"
       inkscape:connector-curvature="0" />
    <path
       style="fill:#4b427c;fill-opacity:1;fill-rule:evenodd;stroke:#000000;stroke-width:0;stroke-linecap:butt;stroke-linejoin:miter;stroke-miterlimit:4;stroke-opacity:1;stroke-dasharray:none"
       d="m 354.50113,468.16567 14.89872,92.35401 8.08024,42.59294 -9.54264,-28.48296 -46.63574,-93.66486 c -4.63895,-13.09824 2.91171,-22.31967 12.00419,-24.51993 8.98162,-2.17343 20.16065,1.84479 21.19523,11.7208 z"
       id="path3204"
       sodipodi:nodetypes="cccccsc"
       inkscape:connector-curvature="0" />
    <path
       style="fill:#fea900;fill-opacity:1;fill-rule:evenodd;stroke:#000000;stroke-width:0;stroke-linecap:butt;stroke-linejoin:miter;stroke-miterlimit:4;stroke-opacity:1;stroke-dasharray:none"
       d="m 500.39427,573.8808 -132.96733,35.43871 136.14815,0 c 11.0517,-0.0864 18.38468,-11.79985 17.39927,-20.95659 -1.0595,-9.84516 -11.19462,-17.09511 -20.58009,-14.48212 z"
       id="path3208"
       sodipodi:nodetypes="cccsc"
       inkscape:connector-curvature="0" />
    <path
       style="fill:#ea5d0e;fill-opacity:1;fill-rule:evenodd;stroke:#000000;stroke-width:0;stroke-linecap:butt;stroke-linejoin:miter;stroke-miterlimit:4;stroke-opacity:1;stroke-dasharray:none"
       d="m 488.11718,536.867 c -30.44586,17.079 -81.74583,47.08726 -118.14477,70.86476 l 131.14385,-37.74312 c 12.5854,-4.54434 14.79629,-16.24062 11.39239,-24.2592 -3.97129,-9.35519 -15.4184,-14.45525 -24.39147,-8.86244 z"
       id="path3210"
       sodipodi:nodetypes="cccsc"
       inkscape:connector-curvature="0" />
    <path
       style="fill:#9f002c;fill-opacity:1;fill-rule:evenodd;stroke:#000000;stroke-width:0;stroke-linecap:butt;stroke-linejoin:miter;stroke-miterlimit:4;stroke-opacity:1;stroke-dasharray:none"
       d="m 465.91704,504.98806 c -35.45562,34.70453 -63.32753,66.37557 -94.9913,99.56336 l 116.18144,-70.9802 c 10.52774,-7.87791 9.31588,-20.83521 3.14456,-27.70963 -6.32929,-7.05038 -17.83925,-7.83423 -24.3347,-0.87353 z"
       id="path3212"
       sodipodi:nodetypes="cccsc"
       inkscape:connector-curvature="0" />
    <path
       style="fill:#893a70;fill-opacity:1;fill-rule:evenodd;stroke:#000000;stroke-width:0;stroke-linecap:butt;stroke-linejoin:miter;stroke-miterlimit:4;stroke-opacity:1;stroke-dasharray:none"
       d="m 434.12327,481.96802 -63.91693,121.864 92.15612,-100.21759 c 7.7173,-10.29134 3.89377,-22.19575 -3.8776,-27.24885 -8.08138,-5.25467 -20.35667,-3.28846 -24.36159,5.60244 z"
       id="path3214"
       sodipodi:nodetypes="cccsc"
       inkscape:connector-curvature="0" />
    <path
       style="fill:#4b427c;fill-opacity:1;fill-rule:evenodd;stroke:#000000;stroke-width:0;stroke-linecap:butt;stroke-linejoin:miter;stroke-miterlimit:4;stroke-opacity:1;stroke-dasharray:none"
       d="m 397.50169,468.16567 -14.89872,92.35401 -8.08024,42.59294 9.54264,-28.48296 46.63574,-93.66486 c 4.63895,-13.09824 -2.91171,-22.31967 -12.00419,-24.51993 -8.98162,-2.17343 -20.16065,1.84479 -21.19523,11.7208 z"
       id="path3216"
       sodipodi:nodetypes="cccccsc"
       inkscape:connector-curvature="0" />
    <path
       style="fill:#ffffff;fill-rule:evenodd;stroke:#000000;stroke-width:0;stroke-linecap:butt;stroke-linejoin:miter;stroke-miterlimit:4;stroke-opacity:1;stroke-dasharray:none"
       d="m 145.81988,243.20953 c 0.60838,-36.18507 19.6234,-61.96833 22.70492,-100.96256 l -6.1375,-2.2383 c 2.53409,-2.38951 8.28284,-3.70748 12.51226,-5.53188 -3.64539,42.26577 21.89022,83.84378 20.22935,108.73274 l -9.58733,1.62864 -17.07984,6.20127 -13.56991,-5.72382 -9.07195,-2.10609 z"
       id="path3192"
       transform="translate(205.29839,366.68582)"
       sodipodi:nodetypes="ccccccccc"
       inkscape:connector-curvature="0" />
  </g>
</svg>
